<svg xmlns="http://www.w3.org/2000/svg" xmlns:xlink="http://www.w3.org/1999/xlink" width="72" zoomAndPan="magnify" viewBox="0 0 54 73.499998" height="98" preserveAspectRatio="xMidYMid meet" version="1.0"><defs><clipPath id="b2986e2515"><path d="M 0.183594 9.625 L 53.816406 9.625 L 53.816406 72.941406 L 0.183594 72.941406 Z M 0.183594 9.625 " clip-rule="nonzero"/></clipPath></defs><g clip-path="url(#b2986e2515)"><path fill="#2b017f" d="M 30.203125 49.199219 L 30.695312 46.921875 C 31.03125 46.800781 31.367188 46.660156 31.691406 46.507812 L 33.648438 47.769531 C 34.226562 48.144531 34.972656 48.066406 35.460938 47.578125 L 37.988281 45.054688 C 38.476562 44.566406 38.554688 43.820312 38.179688 43.238281 L 36.917969 41.28125 C 37.070312 40.957031 37.210938 40.621094 37.332031 40.285156 L 39.605469 39.796875 C 40.28125 39.648438 40.753906 39.066406 40.753906 38.375 L 40.753906 34.804688 C 40.753906 34.113281 40.28125 33.53125 39.605469 33.386719 L 37.332031 32.894531 C 37.210938 32.558594 37.070312 32.222656 36.917969 31.898438 L 38.179688 29.941406 C 38.554688 29.363281 38.476562 28.613281 37.988281 28.125 L 36.957031 27.097656 L 36.957031 23.992188 C 36.957031 23.332031 37.492188 22.796875 38.152344 22.796875 L 46.660156 22.796875 C 47.011719 24.199219 48.285156 25.242188 49.792969 25.242188 C 51.578125 25.242188 53.027344 23.792969 53.027344 22.007812 C 53.027344 20.226562 51.578125 18.773438 49.792969 18.773438 C 48.285156 18.773438 47.011719 19.816406 46.660156 21.21875 L 38.152344 21.21875 C 36.621094 21.21875 35.378906 22.464844 35.378906 23.992188 L 35.378906 25.523438 C 34.890625 25.105469 34.195312 25.054688 33.648438 25.410156 L 32.371094 26.234375 L 32.371094 18.523438 C 32.371094 17.867188 32.910156 17.328125 33.566406 17.328125 L 36.851562 17.328125 C 37.308594 18.5625 38.496094 19.441406 39.882812 19.441406 C 41.667969 19.441406 43.117188 17.992188 43.117188 16.210938 C 43.117188 14.425781 41.667969 12.976562 39.882812 12.976562 C 38.257812 12.976562 36.90625 14.183594 36.683594 15.75 L 33.566406 15.75 C 32.039062 15.75 30.792969 16.996094 30.792969 18.523438 L 30.792969 26.300781 C 30.761719 26.289062 30.726562 26.273438 30.695312 26.261719 L 30.203125 23.984375 C 30.058594 23.308594 29.476562 22.839844 28.785156 22.839844 L 27.789062 22.839844 L 27.789062 15.992188 C 29.191406 15.640625 30.234375 14.367188 30.234375 12.855469 C 30.234375 11.074219 28.78125 9.625 27 9.625 C 25.21875 9.625 23.765625 11.074219 23.765625 12.855469 C 23.765625 14.367188 24.808594 15.640625 26.210938 15.992188 L 26.210938 22.839844 L 25.214844 22.839844 C 24.523438 22.839844 23.941406 23.3125 23.792969 23.988281 L 23.304688 26.261719 C 23.269531 26.273438 23.238281 26.289062 23.203125 26.304688 L 23.203125 18.523438 C 23.203125 16.996094 21.960938 15.75 20.429688 15.75 L 17.316406 15.75 C 17.089844 14.183594 15.742188 12.976562 14.113281 12.976562 C 12.332031 12.976562 10.878906 14.425781 10.878906 16.210938 C 10.878906 17.992188 12.332031 19.441406 14.113281 19.441406 C 15.503906 19.441406 16.691406 18.5625 17.148438 17.328125 L 20.429688 17.328125 C 21.089844 17.328125 21.625 17.867188 21.625 18.523438 L 21.625 26.238281 L 20.347656 25.414062 C 19.800781 25.058594 19.105469 25.109375 18.617188 25.527344 L 18.617188 23.996094 C 18.617188 22.464844 17.375 21.222656 15.847656 21.222656 L 7.339844 21.222656 C 6.984375 19.820312 5.714844 18.777344 4.203125 18.777344 C 2.417969 18.777344 0.96875 20.226562 0.96875 22.011719 C 0.96875 23.792969 2.417969 25.246094 4.203125 25.246094 C 5.714844 25.246094 6.984375 24.203125 7.339844 22.800781 L 15.847656 22.800781 C 16.503906 22.800781 17.042969 23.335938 17.042969 23.996094 L 17.042969 27.097656 L 16.011719 28.128906 C 15.519531 28.617188 15.441406 29.363281 15.816406 29.941406 L 17.082031 31.898438 C 16.925781 32.222656 16.789062 32.558594 16.667969 32.898438 L 14.390625 33.386719 C 13.714844 33.53125 13.242188 34.113281 13.242188 34.804688 L 13.242188 38.375 C 13.242188 39.066406 13.714844 39.648438 14.390625 39.796875 L 16.667969 40.285156 C 16.789062 40.625 16.925781 40.957031 17.082031 41.285156 L 15.816406 43.238281 C 15.441406 43.820312 15.519531 44.566406 16.011719 45.054688 L 18.535156 47.578125 C 19.023438 48.066406 19.769531 48.148438 20.347656 47.769531 L 22.304688 46.507812 C 22.628906 46.660156 22.964844 46.800781 23.300781 46.921875 L 23.792969 49.199219 C 23.9375 49.875 24.519531 50.34375 25.210938 50.34375 L 28.78125 50.34375 C 29.476562 50.34375 30.058594 49.875 30.203125 49.199219 Z M 49.792969 20.355469 C 50.703125 20.355469 51.449219 21.101562 51.449219 22.011719 C 51.449219 22.925781 50.703125 23.667969 49.792969 23.667969 C 48.878906 23.667969 48.136719 22.925781 48.136719 22.011719 C 48.136719 21.101562 48.878906 20.355469 49.792969 20.355469 Z M 39.882812 14.554688 C 40.796875 14.554688 41.539062 15.296875 41.539062 16.210938 C 41.539062 17.121094 40.796875 17.867188 39.882812 17.867188 C 38.972656 17.867188 38.226562 17.121094 38.226562 16.210938 C 38.226562 15.296875 38.972656 14.554688 39.882812 14.554688 Z M 25.34375 12.855469 C 25.34375 11.945312 26.085938 11.203125 27 11.203125 C 27.914062 11.203125 28.65625 11.945312 28.65625 12.855469 C 28.65625 13.769531 27.914062 14.511719 27 14.511719 C 26.085938 14.511719 25.34375 13.769531 25.34375 12.855469 Z M 14.117188 17.867188 C 13.203125 17.867188 12.460938 17.121094 12.460938 16.210938 C 12.460938 15.296875 13.203125 14.554688 14.117188 14.554688 C 15.027344 14.554688 15.773438 15.296875 15.773438 16.210938 C 15.773438 17.121094 15.027344 17.867188 14.117188 17.867188 Z M 4.207031 23.667969 C 3.296875 23.667969 2.550781 22.925781 2.550781 22.011719 C 2.550781 21.101562 3.296875 20.355469 4.207031 20.355469 C 5.121094 20.355469 5.863281 21.101562 5.863281 22.011719 C 5.863281 22.925781 5.121094 23.667969 4.207031 23.667969 Z M 29.164062 46.523438 L 28.683594 48.769531 L 25.316406 48.769531 L 24.835938 46.523438 C 24.726562 46.023438 24.375 45.625 23.894531 45.457031 C 23.570312 45.34375 23.246094 45.207031 22.929688 45.054688 C 22.46875 44.832031 21.941406 44.867188 21.511719 45.144531 L 19.582031 46.390625 L 17.203125 44.011719 L 18.449219 42.082031 C 18.726562 41.652344 18.757812 41.121094 18.535156 40.664062 C 18.386719 40.351562 18.25 40.023438 18.136719 39.699219 C 17.964844 39.214844 17.566406 38.867188 17.070312 38.757812 L 14.824219 38.277344 L 14.824219 34.910156 L 17.070312 34.425781 C 17.566406 34.320312 17.964844 33.96875 18.136719 33.488281 C 18.25 33.164062 18.386719 32.839844 18.535156 32.523438 C 18.757812 32.0625 18.722656 31.535156 18.449219 31.105469 L 17.203125 29.175781 L 19.582031 26.792969 L 21.511719 28.042969 C 21.9375 28.320312 22.46875 28.351562 22.929688 28.128906 C 23.242188 27.976562 23.566406 27.84375 23.894531 27.726562 C 24.375 27.558594 24.726562 27.160156 24.832031 26.664062 L 25.316406 24.417969 L 28.683594 24.417969 L 29.164062 26.664062 C 29.273438 27.160156 29.621094 27.558594 30.101562 27.726562 C 30.429688 27.84375 30.753906 27.976562 31.066406 28.128906 C 31.527344 28.351562 32.058594 28.320312 32.488281 28.042969 L 34.417969 26.792969 L 36.796875 29.175781 L 35.550781 31.105469 C 35.273438 31.535156 35.242188 32.0625 35.460938 32.523438 C 35.613281 32.835938 35.746094 33.160156 35.863281 33.488281 C 36.03125 33.96875 36.429688 34.320312 36.929688 34.425781 L 39.175781 34.910156 L 39.175781 38.277344 L 36.929688 38.757812 C 36.429688 38.867188 36.03125 39.214844 35.863281 39.699219 C 35.75 40.023438 35.613281 40.347656 35.460938 40.664062 C 35.242188 41.121094 35.273438 41.652344 35.550781 42.082031 L 36.796875 44.011719 L 34.414062 46.390625 L 32.488281 45.144531 C 32.058594 44.867188 31.527344 44.832031 31.066406 45.054688 C 30.753906 45.207031 30.429688 45.339844 30.101562 45.457031 C 29.625 45.625 29.273438 46.023438 29.164062 46.523438 Z M 34.550781 36.59375 C 34.550781 32.425781 31.164062 29.039062 27 29.039062 C 22.835938 29.039062 19.449219 32.425781 19.449219 36.59375 C 19.449219 40.757812 22.835938 44.144531 27 44.144531 C 31.164062 44.144531 34.550781 40.757812 34.550781 36.59375 Z M 27 42.566406 C 23.707031 42.566406 21.023438 39.886719 21.023438 36.59375 C 21.023438 33.296875 23.703125 30.617188 27 30.617188 C 30.296875 30.617188 32.976562 33.296875 32.976562 36.59375 C 32.976562 39.886719 30.292969 42.566406 27 42.566406 Z M 24.101562 64.308594 L 22.730469 64.308594 L 22.730469 58.847656 C 22.730469 57.660156 22.304688 56.632812 21.464844 55.792969 L 11.757812 46.085938 C 11.082031 45.410156 10.175781 45.035156 9.214844 45.035156 C 8.59375 45.035156 8 45.191406 7.476562 45.480469 L 7.476562 33.078125 C 7.476562 31.070312 5.84375 29.4375 3.832031 29.4375 C 1.824219 29.4375 0.191406 31.070312 0.191406 33.078125 L 0.191406 52.871094 C 0.191406 54.070312 0.648438 55.144531 1.507812 55.980469 L 9.105469 63.316406 L 9.105469 64.308594 L 7.734375 64.308594 C 7.300781 64.308594 6.945312 64.660156 6.945312 65.097656 L 6.945312 72.210938 C 6.945312 72.648438 7.300781 73 7.734375 73 L 24.101562 73 C 24.535156 73 24.890625 72.648438 24.890625 72.210938 L 24.890625 65.097656 C 24.890625 64.660156 24.539062 64.308594 24.101562 64.308594 Z M 10.445312 62.414062 L 2.605469 54.84375 C 2.042969 54.300781 1.769531 53.65625 1.769531 52.871094 L 1.769531 33.078125 C 1.769531 31.941406 2.695312 31.015625 3.835938 31.015625 C 4.972656 31.015625 5.898438 31.941406 5.898438 33.078125 L 5.898438 47.238281 C 5.351562 48.542969 5.609375 50.113281 6.671875 51.175781 L 11.296875 55.800781 C 11.601562 56.105469 12.101562 56.105469 12.410156 55.800781 C 12.71875 55.492188 12.71875 54.992188 12.410156 54.683594 L 7.785156 50.058594 C 6.996094 49.269531 6.996094 47.988281 7.785156 47.203125 C 8.164062 46.820312 8.671875 46.613281 9.214844 46.613281 C 9.753906 46.613281 10.261719 46.824219 10.640625 47.203125 L 20.347656 56.90625 C 20.886719 57.449219 21.148438 58.082031 21.148438 58.847656 L 21.148438 64.308594 L 10.6875 64.308594 L 10.6875 62.980469 C 10.6875 62.765625 10.597656 62.5625 10.445312 62.414062 Z M 23.3125 71.421875 L 8.523438 71.421875 L 8.523438 65.886719 L 23.3125 65.886719 Z M 50.164062 29.4375 C 48.15625 29.4375 46.523438 31.070312 46.523438 33.078125 L 46.523438 45.480469 C 45.996094 45.191406 45.40625 45.039062 44.785156 45.039062 C 43.820312 45.039062 42.917969 45.410156 42.242188 46.089844 L 32.535156 55.792969 C 31.695312 56.632812 31.269531 57.660156 31.269531 58.847656 L 31.269531 64.308594 L 29.898438 64.308594 C 29.460938 64.308594 29.109375 64.664062 29.109375 65.097656 L 29.109375 72.210938 C 29.109375 72.648438 29.460938 73 29.898438 73 L 46.261719 73 C 46.699219 73 47.050781 72.648438 47.050781 72.210938 L 47.050781 65.097656 C 47.050781 64.660156 46.699219 64.308594 46.261719 64.308594 L 44.890625 64.308594 L 44.890625 63.316406 L 52.488281 55.980469 C 53.351562 55.148438 53.804688 54.074219 53.804688 52.875 L 53.804688 33.078125 C 53.808594 31.070312 52.171875 29.4375 50.164062 29.4375 Z M 45.476562 71.421875 L 30.6875 71.421875 L 30.6875 65.886719 L 45.476562 65.886719 Z M 52.230469 52.875 C 52.230469 53.65625 51.957031 54.300781 51.394531 54.84375 L 43.554688 62.414062 C 43.402344 62.5625 43.3125 62.765625 43.3125 62.980469 L 43.3125 64.308594 L 32.851562 64.308594 L 32.851562 58.847656 C 32.851562 58.082031 33.113281 57.449219 33.652344 56.90625 L 43.359375 47.203125 C 43.738281 46.824219 44.246094 46.613281 44.785156 46.613281 C 45.328125 46.613281 45.835938 46.824219 46.214844 47.203125 C 47.003906 47.988281 47.003906 49.269531 46.214844 50.058594 L 41.589844 54.683594 C 41.28125 54.992188 41.28125 55.492188 41.589844 55.800781 C 41.898438 56.105469 42.398438 56.105469 42.703125 55.800781 L 47.328125 51.175781 C 48.390625 50.113281 48.648438 48.546875 48.101562 47.238281 L 48.101562 33.078125 C 48.101562 31.941406 49.027344 31.015625 50.164062 31.015625 C 51.304688 31.015625 52.230469 31.941406 52.230469 33.078125 Z M 52.230469 52.875 " fill-opacity="1" fill-rule="nonzero"/></g></svg>