<svg xmlns="http://www.w3.org/2000/svg" xmlns:xlink="http://www.w3.org/1999/xlink" width="72" zoomAndPan="magnify" viewBox="0 0 54 73.499998" height="98" preserveAspectRatio="xMidYMid meet" version="1.0"><defs><clipPath id="ee8932c31c"><path d="M 0.183594 23.523438 L 53.816406 23.523438 L 53.816406 61 L 0.183594 61 Z M 0.183594 23.523438 " clip-rule="nonzero"/></clipPath><clipPath id="7932058ad9"><path d="M 0.183594 31 L 53.816406 31 L 53.816406 34 L 0.183594 34 Z M 0.183594 31 " clip-rule="nonzero"/></clipPath><clipPath id="3af78be43d"><path d="M 31 27 L 53.816406 27 L 53.816406 30 L 31 30 Z M 31 27 " clip-rule="nonzero"/></clipPath><clipPath id="c999cb5b28"><path d="M 4 67 L 48 67 L 48 72.691406 L 4 72.691406 Z M 4 67 " clip-rule="nonzero"/></clipPath></defs><path fill="#2b017f" d="M 28.675781 60.410156 L 23.648438 60.410156 C 23.183594 60.410156 22.808594 60.035156 22.808594 59.574219 C 22.808594 59.109375 23.183594 58.734375 23.648438 58.734375 L 28.675781 58.734375 C 29.140625 58.734375 29.515625 59.109375 29.515625 59.574219 C 29.515625 60.035156 29.140625 60.410156 28.675781 60.410156 Z M 28.675781 60.410156 " fill-opacity="1" fill-rule="nonzero"/><g clip-path="url(#ee8932c31c)"><path fill="#2b017f" d="M 52.980469 60.410156 L 43.761719 60.410156 C 43.296875 60.410156 42.921875 60.035156 42.921875 59.574219 C 42.921875 59.109375 43.296875 58.734375 43.761719 58.734375 L 52.140625 58.734375 L 52.140625 25.210938 L 1.859375 25.210938 L 1.859375 58.734375 L 8.5625 58.734375 C 9.027344 58.734375 9.402344 59.109375 9.402344 59.574219 C 9.402344 60.035156 9.027344 60.410156 8.5625 60.410156 L 1.019531 60.410156 C 0.558594 60.410156 0.183594 60.035156 0.183594 59.574219 L 0.183594 24.375 C 0.183594 23.910156 0.558594 23.535156 1.019531 23.535156 L 52.980469 23.535156 C 53.441406 23.535156 53.816406 23.910156 53.816406 24.375 L 53.816406 59.574219 C 53.816406 60.035156 53.441406 60.410156 52.980469 60.410156 Z M 52.980469 60.410156 " fill-opacity="1" fill-rule="nonzero"/></g><path fill="#2b017f" d="M 38.734375 60.410156 L 33.703125 60.410156 C 33.242188 60.410156 32.867188 60.035156 32.867188 59.574219 C 32.867188 59.109375 33.242188 58.734375 33.703125 58.734375 L 38.734375 58.734375 C 39.195312 58.734375 39.570312 59.109375 39.570312 59.574219 C 39.570312 60.035156 39.195312 60.410156 38.734375 60.410156 Z M 38.734375 60.410156 " fill-opacity="1" fill-rule="nonzero"/><path fill="#2b017f" d="M 18.621094 60.410156 L 13.589844 60.410156 C 13.128906 60.410156 12.753906 60.035156 12.753906 59.574219 C 12.753906 59.109375 13.128906 58.734375 13.589844 58.734375 L 18.621094 58.734375 C 19.082031 58.734375 19.457031 59.109375 19.457031 59.574219 C 19.457031 60.035156 19.082031 60.410156 18.621094 60.410156 Z M 18.621094 60.410156 " fill-opacity="1" fill-rule="nonzero"/><g clip-path="url(#7932058ad9)"><path fill="#2b017f" d="M 52.980469 33.59375 L 1.019531 33.59375 C 0.558594 33.59375 0.183594 33.21875 0.183594 32.753906 C 0.183594 32.292969 0.558594 31.917969 1.019531 31.917969 L 52.980469 31.917969 C 53.441406 31.917969 53.816406 32.292969 53.816406 32.753906 C 53.816406 33.21875 53.441406 33.59375 52.980469 33.59375 Z M 52.980469 33.59375 " fill-opacity="1" fill-rule="nonzero"/></g><path fill="#2b017f" d="M 6.046875 29.402344 C 5.992188 29.402344 5.9375 29.398438 5.886719 29.386719 C 5.832031 29.375 5.777344 29.359375 5.726562 29.339844 C 5.675781 29.316406 5.628906 29.292969 5.582031 29.261719 C 5.492188 29.203125 5.414062 29.121094 5.351562 29.03125 C 5.320312 28.984375 5.296875 28.9375 5.273438 28.886719 C 5.253906 28.835938 5.238281 28.78125 5.226562 28.726562 C 5.207031 28.621094 5.207031 28.507812 5.226562 28.402344 C 5.238281 28.347656 5.253906 28.296875 5.273438 28.246094 C 5.296875 28.195312 5.320312 28.144531 5.351562 28.101562 C 5.414062 28.007812 5.492188 27.929688 5.582031 27.867188 C 5.628906 27.835938 5.675781 27.8125 5.726562 27.789062 C 5.933594 27.707031 6.164062 27.707031 6.371094 27.789062 C 6.421875 27.8125 6.46875 27.835938 6.515625 27.867188 C 6.605469 27.929688 6.683594 28.007812 6.746094 28.101562 C 6.777344 28.144531 6.800781 28.195312 6.824219 28.246094 C 6.84375 28.296875 6.859375 28.347656 6.871094 28.402344 C 6.890625 28.507812 6.890625 28.621094 6.871094 28.726562 C 6.859375 28.78125 6.84375 28.835938 6.824219 28.886719 C 6.800781 28.9375 6.777344 28.984375 6.746094 29.03125 C 6.683594 29.121094 6.605469 29.203125 6.515625 29.261719 C 6.46875 29.292969 6.421875 29.316406 6.371094 29.339844 C 6.320312 29.359375 6.265625 29.375 6.210938 29.386719 C 6.160156 29.398438 6.105469 29.402344 6.046875 29.402344 Z M 6.046875 29.402344 " fill-opacity="1" fill-rule="nonzero"/><path fill="#2b017f" d="M 10.238281 29.402344 C 10.183594 29.402344 10.128906 29.398438 10.074219 29.386719 C 10.023438 29.375 9.96875 29.359375 9.917969 29.339844 C 9.867188 29.316406 9.820312 29.292969 9.773438 29.261719 C 9.679688 29.203125 9.601562 29.121094 9.542969 29.03125 C 9.511719 28.984375 9.484375 28.9375 9.464844 28.886719 C 9.445312 28.835938 9.429688 28.78125 9.417969 28.726562 C 9.394531 28.621094 9.394531 28.507812 9.417969 28.402344 C 9.429688 28.347656 9.445312 28.296875 9.464844 28.246094 C 9.484375 28.195312 9.511719 28.144531 9.542969 28.101562 C 9.601562 28.007812 9.679688 27.929688 9.773438 27.867188 C 9.820312 27.835938 9.867188 27.8125 9.917969 27.789062 C 10.125 27.707031 10.355469 27.707031 10.558594 27.789062 C 10.609375 27.8125 10.660156 27.835938 10.703125 27.867188 C 10.75 27.898438 10.792969 27.933594 10.832031 27.972656 C 10.871094 28.011719 10.90625 28.054688 10.9375 28.101562 C 10.96875 28.144531 10.992188 28.195312 11.015625 28.246094 C 11.035156 28.296875 11.050781 28.347656 11.0625 28.402344 C 11.082031 28.511719 11.082031 28.621094 11.0625 28.730469 C 11.050781 28.785156 11.035156 28.835938 11.015625 28.886719 C 10.992188 28.9375 10.96875 28.984375 10.9375 29.03125 C 10.875 29.125 10.796875 29.203125 10.707031 29.261719 C 10.660156 29.292969 10.609375 29.320312 10.5625 29.339844 C 10.511719 29.359375 10.457031 29.375 10.402344 29.386719 C 10.347656 29.398438 10.292969 29.402344 10.238281 29.402344 Z M 10.238281 29.402344 " fill-opacity="1" fill-rule="nonzero"/><path fill="#2b017f" d="M 14.429688 29.402344 C 14.375 29.402344 14.320312 29.398438 14.265625 29.386719 C 14.210938 29.375 14.160156 29.359375 14.109375 29.339844 C 14.058594 29.316406 14.007812 29.292969 13.964844 29.261719 C 13.871094 29.203125 13.792969 29.121094 13.734375 29.03125 C 13.703125 28.984375 13.675781 28.9375 13.65625 28.886719 C 13.632812 28.835938 13.617188 28.78125 13.609375 28.726562 C 13.585938 28.621094 13.585938 28.507812 13.609375 28.402344 C 13.617188 28.347656 13.632812 28.296875 13.65625 28.246094 C 13.675781 28.195312 13.703125 28.144531 13.734375 28.101562 C 13.792969 28.007812 13.871094 27.929688 13.964844 27.867188 C 14.007812 27.835938 14.058594 27.8125 14.109375 27.789062 C 14.3125 27.707031 14.542969 27.707031 14.75 27.789062 C 14.800781 27.8125 14.847656 27.835938 14.894531 27.867188 C 14.988281 27.929688 15.066406 28.007812 15.125 28.101562 C 15.15625 28.144531 15.183594 28.195312 15.203125 28.246094 C 15.222656 28.296875 15.238281 28.347656 15.25 28.402344 C 15.273438 28.507812 15.273438 28.621094 15.25 28.726562 C 15.238281 28.78125 15.222656 28.835938 15.203125 28.886719 C 15.183594 28.9375 15.15625 28.984375 15.125 29.03125 C 15.066406 29.121094 14.988281 29.203125 14.894531 29.261719 C 14.847656 29.292969 14.800781 29.316406 14.75 29.339844 C 14.699219 29.359375 14.648438 29.375 14.59375 29.386719 C 14.539062 29.398438 14.484375 29.402344 14.429688 29.402344 Z M 14.429688 29.402344 " fill-opacity="1" fill-rule="nonzero"/><g clip-path="url(#3af78be43d)"><path fill="#2b017f" d="M 52.980469 29.402344 L 32.027344 29.402344 C 31.566406 29.402344 31.191406 29.027344 31.191406 28.566406 C 31.191406 28.101562 31.566406 27.726562 32.027344 27.726562 L 52.980469 27.726562 C 53.441406 27.726562 53.816406 28.101562 53.816406 28.566406 C 53.816406 29.027344 53.441406 29.402344 52.980469 29.402344 Z M 52.980469 29.402344 " fill-opacity="1" fill-rule="nonzero"/></g><path fill="#2b017f" d="M 13.589844 69.628906 L 8.5625 69.628906 C 8.101562 69.628906 7.726562 69.253906 7.726562 68.792969 L 7.726562 56.21875 C 7.726562 55.757812 8.101562 55.382812 8.5625 55.382812 L 13.589844 55.382812 C 14.054688 55.382812 14.429688 55.757812 14.429688 56.21875 L 14.429688 68.792969 C 14.429688 69.253906 14.054688 69.628906 13.589844 69.628906 Z M 9.402344 67.953125 L 12.753906 67.953125 L 12.753906 57.058594 L 9.402344 57.058594 Z M 9.402344 67.953125 " fill-opacity="1" fill-rule="nonzero"/><path fill="#2b017f" d="M 23.648438 69.628906 L 18.621094 69.628906 C 18.15625 69.628906 17.78125 69.253906 17.78125 68.792969 L 17.78125 51.191406 C 17.78125 50.730469 18.15625 50.355469 18.621094 50.355469 L 23.648438 50.355469 C 24.109375 50.355469 24.484375 50.730469 24.484375 51.191406 L 24.484375 68.792969 C 24.484375 69.253906 24.109375 69.628906 23.648438 69.628906 Z M 19.457031 67.953125 L 22.808594 67.953125 L 22.808594 52.03125 L 19.457031 52.03125 Z M 19.457031 67.953125 " fill-opacity="1" fill-rule="nonzero"/><path fill="#2b017f" d="M 33.703125 69.628906 L 28.675781 69.628906 C 28.214844 69.628906 27.839844 69.253906 27.839844 68.792969 L 27.839844 49.515625 C 27.839844 49.054688 28.214844 48.679688 28.675781 48.679688 L 33.703125 48.679688 C 34.167969 48.679688 34.542969 49.054688 34.542969 49.515625 L 34.542969 68.792969 C 34.542969 69.253906 34.167969 69.628906 33.703125 69.628906 Z M 29.515625 67.953125 L 32.867188 67.953125 L 32.867188 50.355469 L 29.515625 50.355469 Z M 29.515625 67.953125 " fill-opacity="1" fill-rule="nonzero"/><path fill="#2b017f" d="M 43.761719 69.628906 L 38.734375 69.628906 C 38.269531 69.628906 37.894531 69.253906 37.894531 68.792969 L 37.894531 46.164062 C 37.894531 45.699219 38.269531 45.324219 38.734375 45.324219 L 43.761719 45.324219 C 44.222656 45.324219 44.597656 45.699219 44.597656 46.164062 L 44.597656 68.792969 C 44.597656 69.253906 44.222656 69.628906 43.761719 69.628906 Z M 39.570312 67.953125 L 42.921875 67.953125 L 42.921875 47.003906 L 39.570312 47.003906 Z M 39.570312 67.953125 " fill-opacity="1" fill-rule="nonzero"/><g clip-path="url(#c999cb5b28)"><path fill="#2b017f" d="M 44.597656 72.980469 L 6.886719 72.980469 C 5.5 72.980469 4.371094 71.855469 4.371094 70.46875 C 4.371094 69.078125 5.5 67.953125 6.886719 67.953125 L 44.597656 67.953125 C 45.988281 67.953125 47.113281 69.078125 47.113281 70.46875 C 47.113281 71.855469 45.988281 72.980469 44.597656 72.980469 Z M 6.886719 69.628906 C 6.425781 69.628906 6.046875 70.003906 6.046875 70.46875 C 6.046875 70.929688 6.425781 71.304688 6.886719 71.304688 L 44.597656 71.304688 C 45.0625 71.304688 45.4375 70.929688 45.4375 70.46875 C 45.4375 70.003906 45.0625 69.628906 44.597656 69.628906 Z M 6.886719 69.628906 " fill-opacity="1" fill-rule="nonzero"/></g><path fill="#2b017f" d="M 11.078125 52.03125 C 9.226562 52.03125 7.726562 50.53125 7.726562 48.679688 C 7.726562 46.828125 9.226562 45.324219 11.078125 45.324219 C 12.929688 45.324219 14.429688 46.828125 14.429688 48.679688 C 14.429688 50.53125 12.929688 52.03125 11.078125 52.03125 Z M 11.078125 47.003906 C 10.152344 47.003906 9.402344 47.753906 9.402344 48.679688 C 9.402344 49.605469 10.152344 50.355469 11.078125 50.355469 C 12.003906 50.355469 12.753906 49.605469 12.753906 48.679688 C 12.753906 47.753906 12.003906 47.003906 11.078125 47.003906 Z M 11.078125 47.003906 " fill-opacity="1" fill-rule="nonzero"/><path fill="#2b017f" d="M 21.132812 44.488281 C 19.28125 44.488281 17.78125 42.988281 17.78125 41.136719 C 17.78125 39.285156 19.28125 37.785156 21.132812 37.785156 C 22.984375 37.785156 24.484375 39.285156 24.484375 41.136719 C 24.484375 42.988281 22.984375 44.488281 21.132812 44.488281 Z M 21.132812 39.460938 C 20.207031 39.460938 19.457031 40.210938 19.457031 41.136719 C 19.457031 42.0625 20.207031 42.8125 21.132812 42.8125 C 22.058594 42.8125 22.808594 42.0625 22.808594 41.136719 C 22.808594 40.210938 22.058594 39.460938 21.132812 39.460938 Z M 21.132812 39.460938 " fill-opacity="1" fill-rule="nonzero"/><path fill="#2b017f" d="M 31.085938 47.003906 C 29.234375 47.003906 27.734375 45.5 27.734375 43.648438 C 27.734375 41.796875 29.234375 40.296875 31.085938 40.296875 C 32.9375 40.296875 34.4375 41.796875 34.4375 43.648438 C 34.4375 45.5 32.9375 47.003906 31.085938 47.003906 Z M 31.085938 41.972656 C 30.160156 41.972656 29.410156 42.722656 29.410156 43.648438 C 29.410156 44.574219 30.160156 45.324219 31.085938 45.324219 C 32.011719 45.324219 32.761719 44.574219 32.761719 43.648438 C 32.761719 42.722656 32.011719 41.972656 31.085938 41.972656 Z M 31.085938 41.972656 " fill-opacity="1" fill-rule="nonzero"/><path fill="#2b017f" d="M 41.246094 42.8125 C 39.394531 42.8125 37.894531 41.3125 37.894531 39.460938 C 37.894531 37.609375 39.394531 36.105469 41.246094 36.105469 C 43.097656 36.105469 44.597656 37.609375 44.597656 39.460938 C 44.597656 41.3125 43.097656 42.8125 41.246094 42.8125 Z M 41.246094 37.785156 C 40.320312 37.785156 39.570312 38.535156 39.570312 39.460938 C 39.570312 40.386719 40.320312 41.136719 41.246094 41.136719 C 42.171875 41.136719 42.921875 40.386719 42.921875 39.460938 C 42.921875 38.535156 42.171875 37.785156 41.246094 37.785156 Z M 41.246094 37.785156 " fill-opacity="1" fill-rule="nonzero"/><path fill="#2b017f" d="M 28.648438 43.871094 C 28.578125 43.871094 28.507812 43.863281 28.4375 43.847656 L 23.363281 42.566406 C 22.914062 42.449219 22.640625 41.996094 22.753906 41.546875 C 22.867188 41.097656 23.324219 40.824219 23.773438 40.9375 L 28.851562 42.222656 C 29.300781 42.332031 29.570312 42.789062 29.460938 43.238281 C 29.367188 43.609375 29.03125 43.871094 28.644531 43.871094 Z M 28.648438 43.871094 " fill-opacity="1" fill-rule="nonzero"/><path fill="#2b017f" d="M 13.089844 48.007812 C 12.625 48.007812 12.25 47.632812 12.25 47.171875 C 12.25 46.90625 12.375 46.65625 12.585938 46.5 L 18.621094 41.972656 C 18.988281 41.695312 19.515625 41.769531 19.792969 42.140625 C 20.070312 42.511719 19.996094 43.035156 19.625 43.316406 L 13.589844 47.839844 C 13.445312 47.949219 13.269531 48.007812 13.089844 48.007812 Z M 13.089844 48.007812 " fill-opacity="1" fill-rule="nonzero"/><path fill="#2b017f" d="M 33.410156 43.53125 C 32.945312 43.53125 32.570312 43.15625 32.570312 42.691406 C 32.570312 42.351562 32.777344 42.046875 33.089844 41.917969 L 38.601562 39.644531 C 39.03125 39.464844 39.519531 39.671875 39.699219 40.097656 C 39.875 40.527344 39.671875 41.015625 39.242188 41.191406 L 33.730469 43.464844 C 33.628906 43.507812 33.519531 43.53125 33.410156 43.53125 Z M 33.410156 43.53125 " fill-opacity="1" fill-rule="nonzero"/></svg>