<svg xmlns="http://www.w3.org/2000/svg" xmlns:xlink="http://www.w3.org/1999/xlink" width="72" zoomAndPan="magnify" viewBox="0 0 54 73.499998" height="98" preserveAspectRatio="xMidYMid meet" version="1.0"><defs><clipPath id="1b86c61719"><path d="M 0.183594 17.496094 L 53.816406 17.496094 L 53.816406 73 L 0.183594 73 Z M 0.183594 17.496094 " clip-rule="nonzero"/></clipPath></defs><path fill="#2b017f" d="M 27 49.867188 C 27.507812 49.867188 27.925781 49.449219 27.925781 48.941406 L 27.925781 46.167969 L 28.847656 46.167969 C 30.375 46.167969 31.625 44.917969 31.625 43.394531 C 31.625 41.867188 30.375 40.621094 28.847656 40.621094 L 27 40.621094 C 26.492188 40.621094 26.074219 41.035156 26.074219 41.542969 L 26.074219 48.941406 C 26.074219 49.449219 26.492188 49.867188 27 49.867188 Z M 27.925781 42.46875 L 28.847656 42.46875 C 29.359375 42.46875 29.773438 42.886719 29.773438 43.394531 C 29.773438 43.902344 29.359375 44.320312 28.847656 44.320312 L 27.925781 44.320312 Z M 27.925781 42.46875 " fill-opacity="1" fill-rule="nonzero"/><path fill="#2b017f" d="M 34.398438 49.867188 C 34.90625 49.867188 35.324219 49.449219 35.324219 48.941406 L 35.324219 41.542969 C 35.324219 41.035156 34.90625 40.621094 34.398438 40.621094 C 33.890625 40.621094 33.472656 41.035156 33.472656 41.542969 L 33.472656 48.941406 C 33.472656 49.449219 33.890625 49.867188 34.398438 49.867188 Z M 34.398438 49.867188 " fill-opacity="1" fill-rule="nonzero"/><path fill="#2b017f" d="M 19.601562 49.867188 C 20.109375 49.867188 20.527344 49.449219 20.527344 48.941406 L 20.527344 46.167969 L 22.375 46.167969 L 22.375 48.941406 C 22.375 49.449219 22.792969 49.867188 23.300781 49.867188 C 23.808594 49.867188 24.226562 49.449219 24.226562 48.941406 L 24.226562 43.394531 C 24.226562 41.867188 22.976562 40.621094 21.453125 40.621094 C 19.925781 40.621094 18.675781 41.867188 18.675781 43.394531 L 18.675781 48.941406 C 18.675781 49.449219 19.09375 49.867188 19.601562 49.867188 Z M 20.527344 43.394531 C 20.527344 42.886719 20.941406 42.46875 21.453125 42.46875 C 21.960938 42.46875 22.375 42.886719 22.375 43.394531 L 22.375 44.320312 L 20.527344 44.320312 Z M 20.527344 43.394531 " fill-opacity="1" fill-rule="nonzero"/><path fill="#2b017f" d="M 27 59.113281 C 34.652344 59.113281 40.871094 52.894531 40.871094 45.242188 C 40.871094 37.589844 34.652344 31.371094 27 31.371094 C 19.347656 31.371094 13.128906 37.589844 13.128906 45.242188 C 13.128906 52.894531 19.347656 59.113281 27 59.113281 Z M 27 33.222656 C 33.625 33.222656 39.023438 38.621094 39.023438 45.242188 C 39.023438 51.867188 33.625 57.265625 27 57.265625 C 20.375 57.265625 14.976562 51.867188 14.976562 45.242188 C 14.976562 38.621094 20.375 33.222656 27 33.222656 Z M 27 33.222656 " fill-opacity="1" fill-rule="nonzero"/><g clip-path="url(#1b86c61719)"><path fill="#2b017f" d="M 2.957031 65.589844 C 4.484375 65.589844 5.730469 64.339844 5.730469 62.8125 C 5.730469 61.613281 4.957031 60.582031 3.882812 60.203125 L 3.882812 57.714844 L 10.839844 52.144531 C 11.257812 53.105469 11.753906 54.039062 12.332031 54.90625 L 10.632812 56.605469 C 10.273438 56.964844 10.273438 57.554688 10.632812 57.914062 L 14.332031 61.613281 C 14.6875 61.96875 15.277344 61.96875 15.636719 61.613281 L 17.335938 59.914062 C 19.152344 61.101562 21.1875 61.957031 23.300781 62.421875 L 23.300781 65.589844 C 23.300781 66.097656 23.71875 66.511719 24.226562 66.511719 L 29.773438 66.511719 C 30.28125 66.511719 30.699219 66.097656 30.699219 65.589844 L 30.699219 62.421875 C 31.472656 62.257812 32.238281 62.039062 32.976562 61.761719 L 34.410156 70.363281 C 34.480469 70.8125 34.871094 71.136719 35.324219 71.136719 L 38.257812 71.136719 C 38.640625 72.210938 39.667969 72.984375 40.871094 72.984375 C 42.398438 72.984375 43.644531 71.738281 43.644531 70.210938 C 43.644531 68.6875 42.398438 67.4375 40.871094 67.4375 C 39.667969 67.4375 38.640625 68.210938 38.257812 69.285156 L 36.109375 69.285156 L 34.734375 61.023438 C 35.402344 60.699219 36.050781 60.328125 36.675781 59.914062 L 38.375 61.613281 C 38.734375 61.96875 39.320312 61.96875 39.679688 61.613281 L 43.378906 57.914062 C 43.738281 57.554688 43.738281 56.964844 43.378906 56.605469 L 41.679688 54.90625 C 41.773438 54.769531 41.867188 54.628906 41.945312 54.492188 L 48.429688 54.492188 C 48.8125 55.566406 49.839844 56.339844 51.042969 56.339844 C 52.570312 56.339844 53.816406 55.09375 53.816406 53.566406 C 53.816406 52.039062 52.570312 50.792969 51.042969 50.792969 C 49.839844 50.792969 48.8125 51.566406 48.429688 52.640625 L 42.941406 52.640625 C 43.496094 51.460938 43.910156 50.214844 44.1875 48.941406 L 47.34375 48.941406 C 47.851562 48.941406 48.269531 48.527344 48.269531 48.019531 L 48.269531 42.46875 C 48.269531 41.960938 47.851562 41.542969 47.34375 41.542969 L 44.175781 41.542969 C 43.726562 39.429688 42.871094 37.394531 41.667969 35.578125 L 43.367188 33.878906 C 43.726562 33.523438 43.726562 32.933594 43.367188 32.574219 L 39.667969 28.875 C 39.3125 28.515625 38.722656 28.515625 38.363281 28.875 L 36.664062 30.574219 C 36.039062 30.171875 35.390625 29.800781 34.734375 29.464844 L 39.554688 21.199219 L 42.882812 21.199219 C 43.265625 22.273438 44.292969 23.050781 45.496094 23.050781 C 47.019531 23.050781 48.269531 21.800781 48.269531 20.277344 C 48.269531 18.75 47.019531 17.5 45.496094 17.5 C 44.292969 17.5 43.265625 18.277344 42.882812 19.351562 L 39.023438 19.351562 C 38.699219 19.351562 38.386719 19.523438 38.222656 19.8125 L 33.023438 28.738281 C 32.269531 28.460938 31.496094 28.238281 30.710938 28.066406 L 30.710938 24.898438 C 30.710938 24.390625 30.292969 23.972656 29.785156 23.972656 L 24.238281 23.972656 C 23.730469 23.972656 23.3125 24.390625 23.3125 24.898438 L 23.3125 28.066406 C 21.195312 28.515625 19.164062 29.371094 17.347656 30.574219 L 15.648438 28.875 C 15.289062 28.515625 14.699219 28.515625 14.34375 28.875 L 13.011719 30.183594 L 8.503906 27.175781 L 8.503906 22.886719 C 9.582031 22.507812 10.355469 21.476562 10.355469 20.277344 C 10.355469 18.75 9.105469 17.5 7.582031 17.5 C 6.054688 17.5 4.804688 18.75 4.804688 20.277344 C 4.804688 21.476562 5.582031 22.507812 6.65625 22.886719 L 6.65625 27.671875 C 6.65625 27.984375 6.804688 28.273438 7.070312 28.449219 L 11.683594 31.523438 L 10.632812 32.574219 C 10.273438 32.933594 10.273438 33.523438 10.632812 33.878906 L 12.332031 35.578125 C 11.140625 37.394531 10.285156 39.429688 9.824219 41.542969 L 6.65625 41.542969 C 6.148438 41.542969 5.730469 41.960938 5.730469 42.46875 L 5.730469 48.019531 C 5.730469 48.527344 6.148438 48.941406 6.65625 48.941406 L 9.824219 48.941406 C 9.925781 49.40625 10.042969 49.855469 10.179688 50.304688 L 2.390625 56.546875 C 2.171875 56.722656 2.042969 56.988281 2.042969 57.265625 L 2.042969 60.203125 C 0.96875 60.582031 0.195312 61.613281 0.195312 62.8125 C 0.183594 64.339844 1.429688 65.589844 2.957031 65.589844 Z M 40.871094 69.285156 C 41.378906 69.285156 41.796875 69.703125 41.796875 70.210938 C 41.796875 70.71875 41.378906 71.136719 40.871094 71.136719 C 40.363281 71.136719 39.945312 70.71875 39.945312 70.210938 C 39.945312 69.703125 40.363281 69.285156 40.871094 69.285156 Z M 51.042969 52.640625 C 51.550781 52.640625 51.96875 53.058594 51.96875 53.566406 C 51.96875 54.074219 51.550781 54.492188 51.042969 54.492188 C 50.535156 54.492188 50.117188 54.074219 50.117188 53.566406 C 50.117188 53.058594 50.535156 52.640625 51.042969 52.640625 Z M 45.496094 19.351562 C 46.003906 19.351562 46.417969 19.765625 46.417969 20.277344 C 46.417969 20.785156 46.003906 21.199219 45.496094 21.199219 C 44.984375 21.199219 44.570312 20.785156 44.570312 20.277344 C 44.570312 19.765625 44.984375 19.351562 45.496094 19.351562 Z M 7.582031 21.199219 C 7.070312 21.199219 6.65625 20.785156 6.65625 20.277344 C 6.65625 19.765625 7.070312 19.351562 7.582031 19.351562 C 8.089844 19.351562 8.503906 19.765625 8.503906 20.277344 C 8.503906 20.785156 8.089844 21.199219 7.582031 21.199219 Z M 7.582031 47.09375 L 7.582031 43.394531 L 10.585938 43.394531 C 11.035156 43.394531 11.417969 43.070312 11.5 42.621094 C 11.890625 40.25 12.863281 37.960938 14.273438 36.007812 C 14.539062 35.636719 14.503906 35.128906 14.179688 34.804688 L 12.585938 33.222656 L 14.976562 30.828125 L 16.574219 32.425781 C 16.898438 32.746094 17.40625 32.78125 17.777344 32.515625 C 19.730469 31.09375 22.019531 30.136719 24.386719 29.742188 C 24.839844 29.671875 25.160156 29.28125 25.160156 28.828125 L 25.160156 25.824219 L 28.859375 25.824219 L 28.859375 28.828125 C 28.859375 29.28125 29.183594 29.660156 29.636719 29.742188 C 32.003906 30.136719 34.292969 31.105469 36.246094 32.515625 C 36.617188 32.78125 37.125 32.746094 37.449219 32.425781 L 39.042969 30.828125 L 41.4375 33.222656 L 39.84375 34.816406 C 39.519531 35.140625 39.484375 35.648438 39.75 36.019531 C 41.171875 37.972656 42.132812 40.261719 42.523438 42.632812 C 42.59375 43.082031 42.988281 43.40625 43.4375 43.40625 L 46.441406 43.40625 L 46.441406 47.105469 L 43.4375 47.105469 C 42.988281 47.105469 42.605469 47.429688 42.523438 47.878906 C 42.132812 50.25 41.160156 52.539062 39.75 54.492188 C 39.484375 54.859375 39.519531 55.371094 39.84375 55.691406 L 41.4375 57.289062 L 39.023438 59.65625 L 37.425781 58.0625 C 37.101562 57.738281 36.59375 57.703125 36.222656 57.96875 C 34.269531 59.390625 31.980469 60.351562 29.613281 60.746094 C 29.160156 60.8125 28.839844 61.207031 28.839844 61.65625 L 28.839844 64.664062 L 25.140625 64.664062 L 25.140625 61.65625 C 25.140625 61.207031 24.816406 60.824219 24.363281 60.746094 C 21.996094 60.351562 19.707031 59.390625 17.753906 57.96875 C 17.382812 57.703125 16.875 57.738281 16.550781 58.0625 L 14.976562 59.65625 L 12.585938 57.265625 L 14.179688 55.671875 C 14.503906 55.347656 14.539062 54.835938 14.273438 54.46875 C 12.851562 52.515625 11.890625 50.226562 11.5 47.855469 C 11.429688 47.40625 11.035156 47.082031 10.585938 47.082031 L 7.582031 47.082031 Z M 2.957031 61.890625 C 3.464844 61.890625 3.882812 62.304688 3.882812 62.8125 C 3.882812 63.324219 3.464844 63.738281 2.957031 63.738281 C 2.449219 63.738281 2.03125 63.324219 2.03125 62.8125 C 2.03125 62.304688 2.449219 61.890625 2.957031 61.890625 Z M 2.957031 61.890625 " fill-opacity="1" fill-rule="nonzero"/></g></svg>