<svg xmlns="http://www.w3.org/2000/svg" xmlns:xlink="http://www.w3.org/1999/xlink" width="72" zoomAndPan="magnify" viewBox="0 0 54 73.499998" height="98" preserveAspectRatio="xMidYMid meet" version="1.0"><defs><clipPath id="5e9c7553bd"><path d="M 0.183594 17.710938 L 53.816406 17.710938 L 53.816406 72.835938 L 0.183594 72.835938 Z M 0.183594 17.710938 " clip-rule="nonzero"/></clipPath></defs><g clip-path="url(#5e9c7553bd)"><path fill="#2b017f" d="M 17.886719 50.503906 C 17.886719 50.007812 18.289062 49.617188 18.789062 49.617188 C 19.273438 49.617188 19.675781 50.019531 19.675781 50.503906 C 19.675781 50.992188 19.273438 51.394531 18.789062 51.394531 C 18.300781 51.394531 17.886719 50.992188 17.886719 50.503906 Z M 14.117188 59.140625 C 14.617188 59.140625 15.015625 58.738281 15.015625 58.25 C 15.015625 57.753906 14.617188 57.363281 14.117188 57.363281 C 13.628906 57.363281 13.230469 57.765625 13.230469 58.25 C 13.230469 58.738281 13.628906 59.140625 14.117188 59.140625 Z M 16.511719 59.140625 C 17 59.140625 17.402344 58.738281 17.402344 58.25 C 17.402344 57.753906 17 57.363281 16.511719 57.363281 C 16.015625 57.363281 15.625 57.765625 15.625 58.25 C 15.613281 58.738281 16.015625 59.140625 16.511719 59.140625 Z M 14.117188 43.648438 C 14.617188 43.648438 15.015625 43.246094 15.015625 42.757812 C 15.015625 42.269531 14.617188 41.871094 14.117188 41.871094 C 13.628906 41.871094 13.230469 42.269531 13.230469 42.757812 C 13.230469 43.246094 13.628906 43.648438 14.117188 43.648438 Z M 3 43.875 L 3 41.621094 C 3 40.808594 3.664062 40.136719 4.484375 40.136719 L 20.554688 40.136719 C 21.375 40.136719 22.039062 40.796875 22.039062 41.621094 L 22.039062 43.875 C 22.039062 44.699219 21.375 45.359375 20.554688 45.359375 L 4.484375 45.359375 C 3.671875 45.371094 3 44.699219 3 43.875 Z M 4.171875 43.875 C 4.171875 44.046875 4.3125 44.199219 4.484375 44.199219 L 20.554688 44.199219 C 20.726562 44.199219 20.878906 44.058594 20.878906 43.875 L 20.878906 41.621094 C 20.878906 41.449219 20.738281 41.308594 20.554688 41.308594 L 4.484375 41.308594 C 4.3125 41.308594 4.171875 41.449219 4.171875 41.621094 Z M 3 57.125 C 3 56.3125 3.664062 55.640625 4.484375 55.640625 L 20.554688 55.640625 C 21.375 55.640625 22.039062 56.300781 22.039062 57.125 L 22.039062 59.378906 C 22.039062 60.191406 21.375 60.863281 20.554688 60.863281 L 4.484375 60.863281 C 3.671875 60.863281 3 60.203125 3 59.378906 Z M 4.171875 59.378906 C 4.171875 59.550781 4.3125 59.691406 4.484375 59.691406 L 20.554688 59.691406 C 20.726562 59.691406 20.878906 59.550781 20.878906 59.378906 L 20.878906 57.125 C 20.878906 56.953125 20.738281 56.8125 20.554688 56.8125 L 4.484375 56.8125 C 4.3125 56.8125 4.171875 56.953125 4.171875 57.125 Z M 3 49.378906 C 3 48.566406 3.664062 47.894531 4.484375 47.894531 L 20.554688 47.894531 C 21.375 47.894531 22.039062 48.554688 22.039062 49.378906 L 22.039062 51.632812 C 22.039062 52.457031 21.375 53.117188 20.554688 53.117188 L 4.484375 53.117188 C 3.671875 53.117188 3 52.457031 3 51.632812 Z M 4.171875 51.621094 C 4.171875 51.792969 4.3125 51.945312 4.484375 51.945312 L 20.554688 51.945312 C 20.726562 51.945312 20.878906 51.804688 20.878906 51.621094 L 20.878906 49.367188 C 20.878906 49.195312 20.738281 49.054688 20.554688 49.054688 L 4.484375 49.054688 C 4.3125 49.054688 4.171875 49.195312 4.171875 49.367188 Z M 18.789062 59.140625 C 19.273438 59.140625 19.675781 58.738281 19.675781 58.25 C 19.675781 57.753906 19.273438 57.363281 18.789062 57.363281 C 18.289062 57.363281 17.886719 57.765625 17.886719 58.25 C 17.886719 58.738281 18.300781 59.140625 18.789062 59.140625 Z M 16.511719 43.648438 C 17 43.648438 17.402344 43.246094 17.402344 42.757812 C 17.402344 42.269531 17 41.871094 16.511719 41.871094 C 16.015625 41.871094 15.625 42.269531 15.625 42.757812 C 15.613281 43.246094 16.015625 43.648438 16.511719 43.648438 Z M 18.789062 43.648438 C 19.273438 43.648438 19.675781 43.246094 19.675781 42.757812 C 19.675781 42.269531 19.273438 41.871094 18.789062 41.871094 C 18.289062 41.871094 17.886719 42.269531 17.886719 42.757812 C 17.886719 43.246094 18.300781 43.648438 18.789062 43.648438 Z M 16.511719 51.394531 C 17 51.394531 17.402344 50.992188 17.402344 50.503906 C 17.402344 50.007812 17 49.617188 16.511719 49.617188 C 16.015625 49.617188 15.625 50.019531 15.625 50.503906 C 15.613281 50.992188 16.015625 51.394531 16.511719 51.394531 Z M 14.117188 51.394531 C 14.617188 51.394531 15.015625 50.992188 15.015625 50.503906 C 15.015625 50.007812 14.617188 49.617188 14.117188 49.617188 C 13.628906 49.617188 13.230469 50.019531 13.230469 50.503906 C 13.230469 50.992188 13.628906 51.394531 14.117188 51.394531 Z M 52.125 57.527344 C 52.125 58.566406 51.28125 59.410156 50.238281 59.410156 C 49.449219 59.410156 48.777344 58.921875 48.496094 58.230469 L 45.027344 58.230469 C 44.703125 58.230469 44.445312 57.96875 44.445312 57.644531 L 44.445312 50.667969 L 41.941406 50.667969 L 41.941406 64.699219 L 44.824219 64.699219 C 45.070312 63.941406 45.777344 63.398438 46.609375 63.398438 C 47.648438 63.398438 48.496094 64.242188 48.496094 65.285156 C 48.496094 66.324219 47.648438 67.167969 46.609375 67.167969 C 45.777344 67.167969 45.070312 66.617188 44.824219 65.867188 L 41.355469 65.867188 C 41.03125 65.867188 40.769531 65.609375 40.769531 65.285156 L 40.769531 50.667969 L 38.117188 50.667969 L 38.117188 55.273438 C 38.117188 55.597656 37.855469 55.855469 37.53125 55.855469 C 37.207031 55.855469 36.945312 55.597656 36.945312 55.273438 L 36.945312 44.46875 L 24.832031 44.46875 L 24.832031 46.117188 L 34.53125 46.117188 C 35.253906 46.117188 35.839844 46.703125 35.839844 47.429688 L 35.839844 49.257812 C 35.839844 49.984375 35.253906 50.570312 34.53125 50.570312 L 24.832031 50.570312 L 24.832031 52.402344 L 34.53125 52.402344 C 35.253906 52.402344 35.839844 52.984375 35.839844 53.710938 L 35.839844 55.542969 C 35.839844 56.269531 35.253906 56.855469 34.53125 56.855469 L 24.832031 56.855469 L 24.832031 58.683594 L 34.53125 58.683594 C 35.253906 58.683594 35.839844 59.269531 35.839844 59.996094 L 35.839844 61.828125 C 35.839844 62.554688 35.253906 63.136719 34.53125 63.136719 L 24.832031 63.136719 L 24.832031 71.839844 L 36.945312 71.839844 L 36.945312 58.554688 C 36.945312 58.230469 37.207031 57.96875 37.53125 57.96875 C 37.855469 57.96875 38.117188 58.230469 38.117188 58.554688 L 38.117188 72 C 38.117188 72.5625 37.683594 72.996094 37.121094 72.996094 L 1.300781 72.996094 C 0.695312 72.996094 0.195312 72.511719 0.195312 71.902344 L 0.195312 63.320312 C 0.195312 62.996094 0.457031 62.738281 0.78125 62.738281 C 1.105469 62.738281 1.367188 62.996094 1.367188 63.320312 L 1.367188 71.828125 L 23.675781 71.828125 L 23.675781 37.851562 L 1.367188 37.851562 L 1.367188 60.265625 C 1.367188 60.59375 1.105469 60.851562 0.78125 60.851562 C 0.457031 60.851562 0.195312 60.59375 0.195312 60.265625 L 0.195312 37.785156 C 0.195312 37.179688 0.695312 36.679688 1.300781 36.679688 L 5.925781 36.679688 C 5.925781 36.496094 5.90625 36.324219 5.917969 36.140625 L 3.046875 35.371094 C 2.761719 35.304688 2.523438 35.121094 2.382812 34.871094 C 2.234375 34.621094 2.199219 34.328125 2.277344 34.046875 L 3.609375 29.074219 C 3.761719 28.5 4.355469 28.152344 4.941406 28.304688 L 7.824219 29.074219 C 8.527344 27.816406 9.40625 26.667969 10.445312 25.660156 L 8.929688 23.082031 C 8.636719 22.550781 8.820312 21.890625 9.339844 21.597656 L 13.792969 19.019531 C 14.3125 18.726562 14.984375 18.902344 15.277344 19.421875 L 16.773438 22 C 18.160156 21.609375 19.578125 21.414062 21.03125 21.4375 L 21.800781 18.554688 C 21.875 18.273438 22.058594 18.035156 22.308594 17.894531 C 22.558594 17.753906 22.851562 17.710938 23.132812 17.796875 L 28.09375 19.117188 C 28.679688 19.28125 29.015625 19.867188 28.863281 20.449219 L 28.09375 23.332031 C 28.527344 23.570312 28.960938 23.839844 29.363281 24.125 C 29.621094 24.308594 29.6875 24.675781 29.503906 24.9375 C 29.320312 25.195312 28.949219 25.261719 28.691406 25.078125 C 28.191406 24.730469 27.671875 24.414062 27.140625 24.144531 C 26.890625 24.015625 26.773438 23.746094 26.847656 23.472656 L 27.714844 20.222656 L 22.894531 18.945312 L 22.015625 22.195312 C 21.941406 22.453125 21.710938 22.640625 21.421875 22.628906 C 19.804688 22.550781 18.203125 22.757812 16.652344 23.257812 C 16.394531 23.34375 16.113281 23.234375 15.96875 22.996094 L 14.292969 20.082031 L 9.980469 22.574219 L 11.667969 25.476562 C 11.808594 25.714844 11.757812 26.019531 11.5625 26.203125 C 10.359375 27.296875 9.371094 28.585938 8.625 30.027344 C 8.496094 30.277344 8.214844 30.398438 7.953125 30.320312 L 4.714844 29.453125 L 3.425781 34.265625 L 6.664062 35.140625 C 6.925781 35.21875 7.109375 35.457031 7.097656 35.726562 C 7.085938 36.050781 7.074219 36.367188 7.085938 36.691406 L 11.582031 36.691406 C 11.550781 35.769531 11.648438 34.847656 11.898438 33.960938 C 12.1875 32.855469 12.675781 31.835938 13.347656 30.917969 C 13.53125 30.65625 13.902344 30.601562 14.160156 30.785156 C 14.421875 30.972656 14.476562 31.339844 14.292969 31.597656 C 13.707031 32.402344 13.285156 33.300781 13.023438 34.265625 C 12.808594 35.054688 12.730469 35.878906 12.761719 36.691406 L 23.75 36.691406 C 24.355469 36.691406 24.84375 37.191406 24.84375 37.796875 L 24.84375 41.199219 C 25.253906 41.078125 25.667969 41.023438 26.078125 41.023438 C 26.261719 39.152344 27.3125 37.492188 28.875 36.605469 C 29.003906 32.878906 26.535156 29.507812 22.90625 28.542969 C 20.640625 27.9375 18.234375 28.347656 16.296875 29.660156 C 16.023438 29.84375 15.667969 29.769531 15.484375 29.507812 C 15.300781 29.238281 15.375 28.878906 15.632812 28.695312 C 17.855469 27.191406 20.617188 26.734375 23.207031 27.429688 C 27.195312 28.488281 29.957031 32.066406 30.054688 36.117188 C 30.042969 35.824219 32.210938 36.019531 32.40625 36.0625 C 33.1875 36.226562 33.933594 36.5625 34.550781 37.058594 C 34.539062 37.027344 34.539062 36.996094 34.539062 36.960938 C 34.617188 35.335938 34.398438 33.734375 33.914062 32.183594 C 33.824219 31.925781 33.933594 31.640625 34.171875 31.5 L 37.085938 29.824219 L 34.59375 25.511719 L 31.679688 27.191406 C 31.398438 27.351562 31.042969 27.253906 30.878906 26.972656 C 30.714844 26.691406 30.8125 26.332031 31.09375 26.171875 L 34.074219 24.449219 C 34.324219 24.308594 34.617188 24.265625 34.898438 24.339844 C 35.179688 24.414062 35.417969 24.589844 35.558594 24.839844 L 38.136719 29.300781 C 38.429688 29.8125 38.257812 30.484375 37.738281 30.785156 L 35.160156 32.28125 C 35.363281 33.007812 35.515625 33.734375 35.601562 34.480469 C 36.828125 32.585938 38.851562 31.382812 41.117188 31.382812 C 44.734375 31.382812 47.695312 34.460938 47.824219 38.292969 C 47.890625 38.292969 47.953125 38.292969 48.019531 38.292969 C 50.078125 38.292969 52.003906 39.476562 53.046875 41.382812 C 53.199219 41.664062 53.101562 42.023438 52.808594 42.171875 C 52.527344 42.324219 52.167969 42.226562 52.015625 41.933594 C 51.183594 40.40625 49.65625 39.453125 48.019531 39.453125 C 47.8125 39.453125 47.597656 39.476562 47.324219 39.519531 C 47.152344 39.550781 46.980469 39.496094 46.847656 39.378906 C 46.71875 39.257812 46.644531 39.097656 46.652344 38.914062 L 46.664062 38.773438 C 46.664062 38.695312 46.675781 38.621094 46.675781 38.554688 C 46.675781 35.238281 44.183594 32.550781 41.128906 32.550781 C 38.570312 32.550781 36.359375 34.4375 35.753906 37.125 C 35.65625 37.527344 35.601562 37.949219 35.589844 38.371094 C 35.582031 38.621094 35.429688 38.835938 35.191406 38.914062 C 35.050781 38.957031 34.910156 38.945312 34.777344 38.890625 C 34.757812 38.878906 34.746094 38.878906 34.726562 38.867188 C 34.660156 38.824219 34.59375 38.78125 34.539062 38.71875 C 33.75 37.699219 32.601562 37.113281 31.367188 37.113281 C 30.792969 37.113281 30.230469 37.242188 29.699219 37.492188 C 28.191406 38.207031 27.214844 39.832031 27.214844 41.621094 L 27.214844 41.6875 C 27.214844 41.859375 27.140625 42.023438 27 42.140625 C 26.871094 42.25 26.6875 42.304688 26.511719 42.261719 C 25.90625 42.140625 25.363281 42.21875 24.832031 42.433594 L 24.832031 43.3125 L 37.109375 43.3125 C 37.660156 43.3125 38.105469 43.765625 38.105469 44.320312 L 38.105469 49.519531 L 41.257812 49.519531 C 41.289062 49.519531 41.3125 49.496094 41.34375 49.496094 C 41.378906 49.496094 41.410156 49.507812 41.429688 49.519531 L 44.921875 49.519531 C 44.953125 49.519531 44.972656 49.496094 45.007812 49.496094 C 45.039062 49.496094 45.070312 49.507812 45.09375 49.519531 L 47.996094 49.519531 C 50.554688 49.519531 52.632812 47.265625 52.632812 44.492188 C 52.632812 44.167969 52.894531 43.90625 53.21875 43.90625 C 53.542969 43.90625 53.804688 44.167969 53.804688 44.492188 C 53.804688 47.90625 51.203125 50.679688 48.007812 50.679688 L 45.59375 50.679688 L 45.59375 57.070312 L 48.410156 57.070312 C 48.613281 56.257812 49.351562 55.640625 50.230469 55.640625 C 51.28125 55.640625 52.125 56.484375 52.125 57.527344 Z M 24.84375 61.980469 L 34.53125 61.980469 C 34.617188 61.980469 34.679688 61.914062 34.679688 61.828125 L 34.679688 60.007812 C 34.679688 59.929688 34.617188 59.855469 34.53125 59.855469 L 24.84375 59.855469 Z M 24.84375 55.683594 L 34.53125 55.683594 C 34.617188 55.683594 34.679688 55.617188 34.679688 55.53125 L 34.679688 53.703125 C 34.679688 53.625 34.617188 53.550781 34.53125 53.550781 L 24.84375 53.550781 Z M 24.84375 49.398438 L 34.53125 49.398438 C 34.617188 49.398438 34.679688 49.335938 34.679688 49.25 L 34.679688 47.417969 C 34.679688 47.332031 34.617188 47.265625 34.53125 47.265625 L 24.84375 47.265625 Z M 45.882812 65.285156 C 45.882812 65.683594 46.210938 66 46.597656 66 C 47 66 47.316406 65.671875 47.316406 65.285156 C 47.316406 64.882812 46.988281 64.566406 46.597656 64.566406 C 46.210938 64.566406 45.882812 64.882812 45.882812 65.285156 Z M 50.964844 57.527344 C 50.964844 57.125 50.640625 56.8125 50.25 56.8125 C 49.851562 56.8125 49.535156 57.136719 49.535156 57.527344 C 49.535156 57.925781 49.859375 58.242188 50.25 58.242188 C 50.640625 58.242188 50.964844 57.925781 50.964844 57.527344 Z M 50.964844 57.527344 " fill-opacity="1" fill-rule="nonzero"/></g></svg>