<svg xmlns="http://www.w3.org/2000/svg" xmlns:xlink="http://www.w3.org/1999/xlink" width="72" zoomAndPan="magnify" viewBox="0 0 54 73.499998" height="98" preserveAspectRatio="xMidYMid meet" version="1.0"><defs><clipPath id="41af06c57d"><path d="M 24 13.65625 L 30 13.65625 L 30 27 L 24 27 Z M 24 13.65625 " clip-rule="nonzero"/></clipPath><clipPath id="4b69b91dfa"><path d="M 0.183594 29 L 10 29 L 10 44 L 0.183594 44 Z M 0.183594 29 " clip-rule="nonzero"/></clipPath><clipPath id="64ee15962a"><path d="M 44 29 L 53.816406 29 L 53.816406 44 L 44 44 Z M 44 29 " clip-rule="nonzero"/></clipPath></defs><path fill="#2b017f" d="M 46.917969 55.226562 C 46.988281 54.957031 47.132812 54.738281 47.351562 54.566406 C 47.566406 54.398438 47.8125 54.308594 48.089844 54.300781 L 49.574219 54.300781 C 49.800781 54.300781 50.003906 54.226562 50.179688 54.082031 C 50.355469 53.9375 50.464844 53.753906 50.507812 53.53125 C 50.808594 52.015625 50.957031 50.488281 50.960938 48.945312 C 50.960938 48.683594 50.867188 48.457031 50.679688 48.273438 C 50.496094 48.085938 50.269531 47.992188 50.007812 47.992188 L 40.480469 47.992188 L 40.480469 35.609375 C 40.480469 35.394531 40.417969 35.203125 40.289062 35.035156 C 40.160156 34.863281 39.992188 34.75 39.789062 34.691406 L 33.8125 32.984375 L 33.8125 27.988281 C 33.8125 27.722656 33.71875 27.5 33.53125 27.3125 C 33.347656 27.128906 33.121094 27.035156 32.859375 27.035156 L 21.425781 27.035156 C 21.164062 27.035156 20.9375 27.128906 20.753906 27.3125 C 20.566406 27.5 20.472656 27.722656 20.472656 27.988281 L 20.472656 32.984375 L 14.496094 34.691406 C 14.292969 34.75 14.125 34.863281 13.996094 35.035156 C 13.871094 35.203125 13.804688 35.394531 13.804688 35.609375 L 13.804688 47.992188 L 4.277344 47.992188 C 4.015625 47.992188 3.792969 48.085938 3.605469 48.273438 C 3.417969 48.457031 3.324219 48.683594 3.328125 48.945312 C 3.328125 50.488281 3.480469 52.015625 3.777344 53.53125 C 3.820312 53.753906 3.929688 53.9375 4.105469 54.082031 C 4.28125 54.226562 4.484375 54.300781 4.710938 54.300781 L 6.195312 54.300781 C 6.472656 54.308594 6.71875 54.398438 6.9375 54.566406 C 7.152344 54.738281 7.296875 54.957031 7.367188 55.226562 C 7.726562 56.351562 8.175781 57.4375 8.722656 58.484375 C 8.859375 58.722656 8.914062 58.980469 8.882812 59.253906 C 8.847656 59.53125 8.738281 59.769531 8.546875 59.96875 L 7.492188 61.027344 C 7.332031 61.1875 7.238281 61.378906 7.21875 61.609375 C 7.195312 61.835938 7.246094 62.042969 7.375 62.230469 C 9.113281 64.816406 11.273438 66.976562 13.859375 68.714844 C 14.046875 68.839844 14.253906 68.894531 14.480469 68.871094 C 14.707031 68.851562 14.902344 68.757812 15.0625 68.597656 L 16.121094 67.542969 C 16.320312 67.351562 16.558594 67.242188 16.832031 67.210938 C 17.105469 67.179688 17.363281 67.230469 17.605469 67.367188 C 18.652344 67.910156 19.738281 68.363281 20.863281 68.722656 C 21.128906 68.792969 21.351562 68.9375 21.519531 69.152344 C 21.691406 69.371094 21.78125 69.617188 21.789062 69.890625 L 21.789062 71.378906 C 21.789062 71.605469 21.859375 71.808594 22.007812 71.984375 C 22.152344 72.160156 22.335938 72.269531 22.558594 72.3125 C 25.613281 72.917969 28.671875 72.917969 31.726562 72.3125 C 31.949219 72.269531 32.132812 72.160156 32.28125 71.984375 C 32.425781 71.808594 32.496094 71.605469 32.496094 71.378906 L 32.496094 69.890625 C 32.503906 69.617188 32.59375 69.371094 32.765625 69.152344 C 32.9375 68.9375 33.15625 68.792969 33.421875 68.722656 C 34.546875 68.363281 35.632812 67.910156 36.679688 67.367188 C 36.921875 67.230469 37.179688 67.179688 37.453125 67.210938 C 37.726562 67.242188 37.964844 67.351562 38.167969 67.542969 L 39.222656 68.597656 C 39.382812 68.757812 39.578125 68.851562 39.804688 68.871094 C 40.03125 68.894531 40.238281 68.839844 40.429688 68.714844 C 43.011719 66.976562 45.171875 64.816406 46.910156 62.230469 C 47.039062 62.042969 47.089844 61.835938 47.070312 61.609375 C 47.046875 61.378906 46.957031 61.1875 46.792969 61.027344 L 45.738281 59.96875 C 45.546875 59.769531 45.4375 59.53125 45.40625 59.253906 C 45.371094 58.980469 45.425781 58.722656 45.566406 58.484375 C 46.109375 57.4375 46.558594 56.351562 46.917969 55.226562 Z M 33.8125 34.964844 L 38.574219 36.328125 L 38.574219 47.992188 L 33.8125 47.992188 Z M 22.378906 28.941406 L 31.90625 28.941406 L 31.90625 47.992188 L 30 47.992188 L 30 44.183594 C 30 43.917969 29.90625 43.695312 29.722656 43.507812 C 29.535156 43.324219 29.3125 43.230469 29.046875 43.230469 L 25.238281 43.230469 C 24.972656 43.230469 24.75 43.324219 24.5625 43.507812 C 24.378906 43.695312 24.285156 43.917969 24.285156 44.183594 L 24.285156 47.992188 L 22.378906 47.992188 Z M 28.09375 45.136719 L 28.09375 47.992188 L 26.191406 47.992188 L 26.191406 45.136719 Z M 15.710938 36.328125 L 20.472656 34.964844 L 20.472656 47.992188 L 15.710938 47.992188 Z M 40.261719 49.898438 C 40.203125 50.722656 40.070312 51.53125 39.859375 52.328125 C 39.648438 53.125 39.363281 53.894531 39.007812 54.636719 C 38.652344 55.382812 38.230469 56.085938 37.742188 56.75 C 37.253906 57.414062 36.710938 58.027344 36.105469 58.589844 C 35.503906 59.148438 34.851562 59.652344 34.15625 60.089844 C 33.457031 60.53125 32.726562 60.898438 31.960938 61.203125 C 31.191406 61.503906 30.402344 61.730469 29.59375 61.886719 C 28.785156 62.039062 27.96875 62.117188 27.144531 62.117188 C 26.320312 62.117188 25.5 62.039062 24.691406 61.886719 C 23.882812 61.730469 23.09375 61.503906 22.328125 61.203125 C 21.558594 60.898438 20.828125 60.53125 20.128906 60.089844 C 19.433594 59.652344 18.78125 59.148438 18.179688 58.589844 C 17.574219 58.027344 17.03125 57.414062 16.542969 56.75 C 16.054688 56.085938 15.632812 55.382812 15.277344 54.636719 C 14.921875 53.894531 14.636719 53.125 14.425781 52.328125 C 14.214844 51.53125 14.082031 50.722656 14.023438 49.898438 Z M 45.101562 54.648438 C 44.777344 55.667969 44.367188 56.65625 43.875 57.605469 C 43.714844 57.902344 43.601562 58.214844 43.542969 58.546875 C 43.484375 58.878906 43.476562 59.210938 43.523438 59.546875 C 43.570312 59.878906 43.667969 60.199219 43.816406 60.5 C 43.964844 60.804688 44.15625 61.074219 44.390625 61.316406 L 44.882812 61.808594 C 43.515625 63.691406 41.890625 65.320312 40.003906 66.6875 L 39.511719 66.195312 C 39.273438 65.957031 39 65.765625 38.699219 65.617188 C 38.394531 65.46875 38.078125 65.371094 37.742188 65.324219 C 37.410156 65.277344 37.074219 65.285156 36.742188 65.34375 C 36.414062 65.40625 36.097656 65.515625 35.800781 65.675781 C 34.851562 66.171875 33.867188 66.582031 32.84375 66.90625 C 32.523438 67 32.222656 67.144531 31.945312 67.339844 C 31.671875 67.53125 31.429688 67.761719 31.226562 68.027344 C 31.027344 68.296875 30.871094 68.589844 30.761719 68.910156 C 30.652344 69.226562 30.597656 69.554688 30.589844 69.890625 L 30.589844 70.578125 C 28.292969 70.953125 25.992188 70.953125 23.695312 70.578125 L 23.695312 69.890625 C 23.691406 69.554688 23.632812 69.226562 23.523438 68.910156 C 23.414062 68.589844 23.261719 68.296875 23.058594 68.027344 C 22.855469 67.761719 22.617188 67.53125 22.339844 67.339844 C 22.0625 67.144531 21.761719 67 21.441406 66.90625 C 20.417969 66.582031 19.433594 66.171875 18.484375 65.675781 C 18.1875 65.515625 17.871094 65.40625 17.542969 65.34375 C 17.210938 65.285156 16.875 65.277344 16.542969 65.324219 C 16.207031 65.371094 15.890625 65.46875 15.585938 65.617188 C 15.285156 65.765625 15.011719 65.957031 14.773438 66.195312 L 14.28125 66.6875 C 12.394531 65.320312 10.769531 63.691406 9.402344 61.808594 L 9.894531 61.316406 C 10.128906 61.074219 10.320312 60.804688 10.46875 60.5 C 10.617188 60.199219 10.714844 59.878906 10.761719 59.546875 C 10.808594 59.210938 10.800781 58.878906 10.742188 58.546875 C 10.683594 58.214844 10.574219 57.902344 10.414062 57.605469 C 9.917969 56.65625 9.507812 55.667969 9.183594 54.648438 C 9.085938 54.324219 8.941406 54.027344 8.75 53.75 C 8.558594 53.472656 8.328125 53.234375 8.058594 53.03125 C 7.789062 52.828125 7.496094 52.671875 7.179688 52.566406 C 6.859375 52.457031 6.53125 52.398438 6.195312 52.394531 L 5.507812 52.394531 C 5.378906 51.566406 5.292969 50.734375 5.253906 49.898438 L 12.117188 49.898438 C 12.175781 50.847656 12.324219 51.78125 12.558594 52.699219 C 12.792969 53.617188 13.113281 54.507812 13.515625 55.367188 C 13.921875 56.226562 14.402344 57.039062 14.957031 57.808594 C 15.515625 58.578125 16.140625 59.285156 16.832031 59.9375 C 17.523438 60.585938 18.269531 61.164062 19.070312 61.675781 C 19.875 62.183594 20.714844 62.613281 21.597656 62.960938 C 22.480469 63.3125 23.386719 63.574219 24.320312 63.753906 C 25.253906 63.933594 26.195312 64.019531 27.144531 64.019531 C 28.09375 64.019531 29.03125 63.933594 29.964844 63.753906 C 30.898438 63.574219 31.804688 63.3125 32.6875 62.960938 C 33.570312 62.613281 34.414062 62.183594 35.214844 61.675781 C 36.015625 61.164062 36.761719 60.585938 37.453125 59.9375 C 38.144531 59.285156 38.769531 58.578125 39.328125 57.808594 C 39.886719 57.039062 40.367188 56.226562 40.769531 55.367188 C 41.171875 54.507812 41.492188 53.617188 41.726562 52.699219 C 41.964844 51.78125 42.109375 50.847656 42.167969 49.898438 L 49.03125 49.898438 C 48.992188 50.734375 48.910156 51.566406 48.777344 52.394531 L 48.089844 52.394531 C 47.753906 52.398438 47.425781 52.457031 47.105469 52.566406 C 46.789062 52.671875 46.496094 52.828125 46.226562 53.03125 C 45.957031 53.234375 45.726562 53.472656 45.535156 53.75 C 45.34375 54.027344 45.199219 54.324219 45.101562 54.648438 Z M 45.101562 54.648438 " fill-opacity="1" fill-rule="nonzero"/><g clip-path="url(#41af06c57d)"><path fill="#2b017f" d="M 28.09375 26.082031 L 28.09375 19.238281 C 28.304688 19.164062 28.503906 19.066406 28.691406 18.945312 C 28.882812 18.824219 29.050781 18.683594 29.207031 18.519531 C 29.359375 18.359375 29.496094 18.183594 29.609375 17.988281 C 29.722656 17.796875 29.808594 17.59375 29.875 17.378906 C 29.941406 17.167969 29.980469 16.949219 29.996094 16.726562 C 30.007812 16.5 29.996094 16.28125 29.960938 16.058594 C 29.921875 15.839844 29.859375 15.625 29.773438 15.421875 C 29.683594 15.214844 29.574219 15.023438 29.441406 14.84375 C 29.308594 14.664062 29.15625 14.503906 28.984375 14.359375 C 28.8125 14.214844 28.628906 14.089844 28.429688 13.992188 C 28.230469 13.890625 28.023438 13.8125 27.804688 13.761719 C 27.585938 13.710938 27.367188 13.683594 27.144531 13.683594 C 26.917969 13.683594 26.699219 13.710938 26.480469 13.761719 C 26.265625 13.8125 26.054688 13.890625 25.855469 13.992188 C 25.65625 14.089844 25.472656 14.214844 25.300781 14.359375 C 25.128906 14.5 24.976562 14.664062 24.84375 14.84375 C 24.710938 15.023438 24.601562 15.214844 24.515625 15.421875 C 24.425781 15.625 24.363281 15.839844 24.324219 16.058594 C 24.289062 16.28125 24.277344 16.5 24.289062 16.726562 C 24.304688 16.949219 24.34375 17.164062 24.410156 17.378906 C 24.476562 17.59375 24.566406 17.796875 24.675781 17.988281 C 24.789062 18.183594 24.925781 18.359375 25.078125 18.519531 C 25.234375 18.683594 25.40625 18.824219 25.59375 18.945312 C 25.78125 19.066406 25.980469 19.164062 26.191406 19.238281 L 26.191406 26.082031 Z M 27.144531 15.601562 C 27.40625 15.601562 27.628906 15.695312 27.816406 15.882812 C 28.003906 16.066406 28.09375 16.292969 28.09375 16.554688 C 28.09375 16.820312 28.003906 17.042969 27.816406 17.230469 C 27.628906 17.414062 27.40625 17.507812 27.144531 17.507812 C 26.878906 17.507812 26.65625 17.414062 26.46875 17.230469 C 26.285156 17.042969 26.191406 16.820312 26.191406 16.554688 C 26.191406 16.292969 26.285156 16.066406 26.46875 15.882812 C 26.65625 15.695312 26.878906 15.601562 27.144531 15.601562 Z M 27.144531 15.601562 " fill-opacity="1" fill-rule="nonzero"/></g><path fill="#2b017f" d="M 36.667969 26.082031 L 36.667969 32.75 L 38.574219 32.75 L 38.574219 26.476562 L 40.207031 24.84375 C 40.59375 25.03125 41.003906 25.128906 41.433594 25.128906 C 41.8125 25.128906 42.175781 25.058594 42.527344 24.910156 C 42.875 24.765625 43.1875 24.558594 43.453125 24.292969 C 43.722656 24.023438 43.929688 23.714844 44.074219 23.363281 C 44.21875 23.015625 44.289062 22.648438 44.289062 22.269531 C 44.289062 21.890625 44.21875 21.527344 44.074219 21.175781 C 43.929688 20.828125 43.722656 20.519531 43.453125 20.25 C 43.1875 19.984375 42.875 19.777344 42.527344 19.632812 C 42.175781 19.484375 41.8125 19.414062 41.433594 19.414062 C 41.054688 19.414062 40.6875 19.484375 40.339844 19.632812 C 39.988281 19.777344 39.679688 19.984375 39.410156 20.25 C 39.144531 20.519531 38.9375 20.828125 38.792969 21.175781 C 38.648438 21.527344 38.574219 21.890625 38.574219 22.269531 C 38.578125 22.703125 38.671875 23.109375 38.859375 23.496094 L 36.949219 25.410156 C 36.761719 25.59375 36.667969 25.820312 36.667969 26.082031 Z M 41.433594 21.320312 C 41.695312 21.320312 41.921875 21.410156 42.105469 21.597656 C 42.292969 21.785156 42.386719 22.007812 42.386719 22.269531 C 42.386719 22.535156 42.292969 22.757812 42.105469 22.945312 C 41.921875 23.132812 41.695312 23.222656 41.433594 23.222656 C 41.167969 23.222656 40.945312 23.132812 40.757812 22.945312 C 40.574219 22.757812 40.480469 22.535156 40.480469 22.269531 C 40.480469 22.007812 40.574219 21.785156 40.757812 21.597656 C 40.945312 21.410156 41.171875 21.320312 41.433594 21.320312 Z M 41.433594 21.320312 " fill-opacity="1" fill-rule="nonzero"/><path fill="#2b017f" d="M 12.851562 19.414062 C 12.472656 19.414062 12.109375 19.484375 11.757812 19.632812 C 11.410156 19.777344 11.101562 19.984375 10.832031 20.25 C 10.5625 20.519531 10.359375 20.828125 10.210938 21.175781 C 10.066406 21.527344 9.996094 21.890625 9.996094 22.269531 C 9.996094 22.648438 10.066406 23.015625 10.210938 23.363281 C 10.359375 23.714844 10.5625 24.023438 10.832031 24.292969 C 11.101562 24.558594 11.410156 24.765625 11.757812 24.910156 C 12.109375 25.058594 12.472656 25.128906 12.851562 25.128906 C 13.28125 25.128906 13.691406 25.03125 14.078125 24.84375 L 15.710938 26.476562 L 15.710938 32.75 L 17.617188 32.75 L 17.617188 26.082031 C 17.617188 25.820312 17.523438 25.59375 17.335938 25.410156 L 15.425781 23.496094 C 15.613281 23.109375 15.707031 22.703125 15.710938 22.269531 C 15.710938 21.890625 15.636719 21.527344 15.492188 21.179688 C 15.347656 20.828125 15.140625 20.519531 14.871094 20.25 C 14.605469 19.984375 14.296875 19.777344 13.945312 19.632812 C 13.597656 19.488281 13.230469 19.414062 12.851562 19.414062 Z M 12.851562 23.222656 C 12.589844 23.222656 12.367188 23.132812 12.179688 22.945312 C 11.992188 22.757812 11.898438 22.535156 11.898438 22.269531 C 11.898438 22.007812 11.992188 21.785156 12.179688 21.597656 C 12.367188 21.410156 12.589844 21.320312 12.851562 21.320312 C 13.117188 21.320312 13.339844 21.410156 13.527344 21.597656 C 13.710938 21.785156 13.804688 22.007812 13.804688 22.269531 C 13.804688 22.535156 13.710938 22.757812 13.527344 22.945312 C 13.339844 23.128906 13.117188 23.222656 12.851562 23.222656 Z M 12.851562 23.222656 " fill-opacity="1" fill-rule="nonzero"/><g clip-path="url(#4b69b91dfa)"><path fill="#2b017f" d="M 3.328125 29.894531 C 3.09375 29.890625 2.859375 29.917969 2.632812 29.976562 C 2.40625 30.03125 2.1875 30.113281 1.980469 30.222656 C 1.773438 30.332031 1.585938 30.464844 1.410156 30.625 C 1.234375 30.78125 1.082031 30.953125 0.953125 31.148438 C 0.820312 31.34375 0.714844 31.550781 0.632812 31.769531 C 0.554688 31.988281 0.5 32.214844 0.476562 32.449219 C 0.453125 32.683594 0.457031 32.914062 0.488281 33.144531 C 0.519531 33.378906 0.582031 33.601562 0.667969 33.820312 C 0.753906 34.039062 0.867188 34.242188 1.003906 34.429688 C 1.144531 34.621094 1.300781 34.789062 1.480469 34.941406 C 1.660156 35.089844 1.855469 35.21875 2.066406 35.320312 C 2.277344 35.421875 2.496094 35.5 2.726562 35.546875 C 2.957031 35.59375 3.1875 35.617188 3.421875 35.605469 C 3.65625 35.597656 3.882812 35.5625 4.109375 35.496094 C 4.335938 35.433594 4.546875 35.339844 4.75 35.222656 C 4.953125 35.105469 5.140625 34.964844 5.308594 34.800781 L 8.089844 36.195312 L 8.089844 43.230469 L 9.996094 43.230469 L 9.996094 35.609375 C 9.996094 35.214844 9.820312 34.933594 9.46875 34.757812 L 6.148438 33.09375 C 6.167969 32.980469 6.179688 32.867188 6.183594 32.75 C 6.183594 32.371094 6.109375 32.007812 5.964844 31.65625 C 5.820312 31.308594 5.613281 31 5.347656 30.730469 C 5.078125 30.460938 4.769531 30.257812 4.417969 30.109375 C 4.070312 29.964844 3.707031 29.894531 3.328125 29.894531 Z M 3.328125 33.703125 C 3.0625 33.703125 2.839844 33.609375 2.652344 33.425781 C 2.464844 33.238281 2.375 33.015625 2.375 32.75 C 2.375 32.488281 2.464844 32.261719 2.652344 32.078125 C 2.839844 31.890625 3.0625 31.796875 3.328125 31.796875 C 3.589844 31.796875 3.8125 31.890625 4 32.078125 C 4.1875 32.261719 4.277344 32.488281 4.277344 32.75 C 4.277344 33.015625 4.183594 33.238281 4 33.425781 C 3.8125 33.609375 3.589844 33.703125 3.328125 33.703125 Z M 3.328125 33.703125 " fill-opacity="1" fill-rule="nonzero"/></g><path fill="#2b017f" d="M 8.089844 45.136719 L 9.996094 45.136719 L 9.996094 47.039062 L 8.089844 47.039062 Z M 8.089844 45.136719 " fill-opacity="1" fill-rule="nonzero"/><g clip-path="url(#64ee15962a)"><path fill="#2b017f" d="M 53.816406 32.75 C 53.816406 32.371094 53.746094 32.007812 53.601562 31.65625 C 53.453125 31.308594 53.25 30.996094 52.980469 30.730469 C 52.710938 30.460938 52.402344 30.253906 52.054688 30.109375 C 51.703125 29.964844 51.339844 29.894531 50.960938 29.894531 C 50.582031 29.894531 50.214844 29.964844 49.867188 30.109375 C 49.515625 30.253906 49.207031 30.460938 48.9375 30.730469 C 48.671875 30.996094 48.464844 31.308594 48.320312 31.65625 C 48.175781 32.007812 48.101562 32.371094 48.101562 32.75 C 48.105469 32.867188 48.117188 32.980469 48.136719 33.09375 L 44.816406 34.757812 C 44.464844 34.933594 44.289062 35.214844 44.289062 35.609375 L 44.289062 43.230469 L 46.195312 43.230469 L 46.195312 36.195312 L 48.976562 34.800781 C 49.390625 35.203125 49.878906 35.453125 50.441406 35.558594 C 51.003906 35.664062 51.550781 35.605469 52.078125 35.382812 C 52.605469 35.160156 53.027344 34.808594 53.34375 34.328125 C 53.660156 33.851562 53.820312 33.324219 53.816406 32.75 Z M 50.007812 32.75 C 50.007812 32.488281 50.101562 32.261719 50.285156 32.078125 C 50.472656 31.890625 50.695312 31.796875 50.960938 31.796875 C 51.222656 31.796875 51.445312 31.890625 51.632812 32.078125 C 51.820312 32.261719 51.914062 32.488281 51.914062 32.75 C 51.914062 33.015625 51.820312 33.238281 51.632812 33.425781 C 51.445312 33.609375 51.222656 33.703125 50.960938 33.703125 C 50.695312 33.703125 50.472656 33.609375 50.285156 33.425781 C 50.101562 33.238281 50.007812 33.015625 50.007812 32.75 Z M 50.007812 32.75 " fill-opacity="1" fill-rule="nonzero"/></g><path fill="#2b017f" d="M 44.289062 45.136719 L 46.195312 45.136719 L 46.195312 47.039062 L 44.289062 47.039062 Z M 44.289062 45.136719 " fill-opacity="1" fill-rule="nonzero"/><path fill="#2b017f" d="M 24.285156 31.796875 L 30 31.796875 L 30 33.703125 L 24.285156 33.703125 Z M 24.285156 31.796875 " fill-opacity="1" fill-rule="nonzero"/><path fill="#2b017f" d="M 24.285156 35.609375 L 30 35.609375 L 30 37.515625 L 24.285156 37.515625 Z M 24.285156 35.609375 " fill-opacity="1" fill-rule="nonzero"/><path fill="#2b017f" d="M 24.285156 39.417969 L 30 39.417969 L 30 41.324219 L 24.285156 41.324219 Z M 24.285156 39.417969 " fill-opacity="1" fill-rule="nonzero"/><path fill="#2b017f" d="M 34.765625 37.515625 L 37.621094 37.515625 L 37.621094 39.417969 L 34.765625 39.417969 Z M 34.765625 37.515625 " fill-opacity="1" fill-rule="nonzero"/><path fill="#2b017f" d="M 34.765625 41.324219 L 37.621094 41.324219 L 37.621094 43.230469 L 34.765625 43.230469 Z M 34.765625 41.324219 " fill-opacity="1" fill-rule="nonzero"/><path fill="#2b017f" d="M 16.664062 37.515625 L 19.523438 37.515625 L 19.523438 39.417969 L 16.664062 39.417969 Z M 16.664062 37.515625 " fill-opacity="1" fill-rule="nonzero"/><path fill="#2b017f" d="M 16.664062 41.324219 L 19.523438 41.324219 L 19.523438 43.230469 L 16.664062 43.230469 Z M 16.664062 41.324219 " fill-opacity="1" fill-rule="nonzero"/></svg>