<svg xmlns="http://www.w3.org/2000/svg" xmlns:xlink="http://www.w3.org/1999/xlink" width="72" zoomAndPan="magnify" viewBox="0 0 54 73.499998" height="98" preserveAspectRatio="xMidYMid meet" version="1.0"><defs><clipPath id="c084d35426"><path d="M 0.183594 19.367188 L 53.816406 19.367188 L 53.816406 73 L 0.183594 73 Z M 0.183594 19.367188 " clip-rule="nonzero"/></clipPath></defs><g clip-path="url(#c084d35426)"><path fill="#2b017f" d="M 25.316406 19.425781 C 24.757812 19.421875 24.273438 19.824219 24.171875 20.375 L 23.539062 23.84375 C 22.996094 24.019531 22.472656 24.230469 21.957031 24.484375 L 19.109375 22.429688 C 18.652344 22.101562 18.019531 22.144531 17.621094 22.546875 L 15.144531 24.984375 C 14.746094 25.382812 14.6875 26.003906 15.007812 26.46875 L 17.007812 29.363281 C 16.746094 29.875 16.523438 30.398438 16.347656 30.9375 L 12.878906 31.5 C 12.320312 31.585938 11.910156 32.066406 11.90625 32.636719 L 11.882812 36.109375 C 11.878906 36.671875 12.28125 37.15625 12.832031 37.253906 L 16.3125 37.886719 C 16.484375 38.425781 16.703125 38.949219 16.957031 39.457031 L 14.886719 42.320312 C 14.558594 42.777344 14.601562 43.410156 15 43.8125 L 17.445312 46.28125 C 17.835938 46.679688 18.460938 46.738281 18.921875 46.417969 L 21.855469 44.398438 C 22.363281 44.65625 22.882812 44.871094 23.417969 45.046875 L 24.015625 48.558594 C 24.109375 49.117188 24.585938 49.523438 25.148438 49.527344 L 28.621094 49.546875 C 29.191406 49.550781 29.675781 49.136719 29.769531 48.582031 L 30.363281 45.074219 C 30.890625 44.902344 31.410156 44.695312 31.910156 44.441406 L 34.820312 46.507812 C 35.28125 46.835938 35.90625 46.78125 36.304688 46.386719 L 38.78125 43.949219 C 39.183594 43.550781 39.238281 42.914062 38.90625 42.449219 L 36.84375 39.554688 C 37.101562 39.050781 37.316406 38.539062 37.496094 38.015625 L 41.019531 37.417969 C 41.570312 37.324219 41.980469 36.84375 41.984375 36.277344 L 42 32.808594 C 42.007812 32.242188 41.597656 31.757812 41.039062 31.660156 L 37.542969 31.070312 C 37.371094 30.535156 37.160156 30.015625 36.910156 29.503906 L 38.964844 26.601562 C 39.296875 26.144531 39.246094 25.519531 38.847656 25.117188 L 36.402344 22.648438 C 36.007812 22.25 35.371094 22.191406 34.910156 22.519531 L 32.042969 24.558594 C 31.535156 24.300781 31.019531 24.082031 30.488281 23.90625 L 29.929688 20.421875 C 29.839844 19.859375 29.359375 19.449219 28.789062 19.445312 Z M 26.277344 21.746094 L 27.796875 21.757812 L 28.300781 24.886719 C 28.371094 25.34375 28.710938 25.710938 29.15625 25.824219 C 30.003906 26.042969 30.824219 26.390625 31.59375 26.855469 C 31.988281 27.101562 32.488281 27.082031 32.867188 26.816406 L 35.449219 24.984375 L 36.515625 26.058594 L 34.65625 28.667969 C 34.394531 29.042969 34.371094 29.535156 34.609375 29.929688 C 35.066406 30.703125 35.398438 31.527344 35.597656 32.371094 C 35.707031 32.824219 36.074219 33.167969 36.535156 33.25 L 39.679688 33.78125 L 39.671875 35.296875 L 36.496094 35.828125 C 36.042969 35.90625 35.675781 36.246094 35.5625 36.6875 C 35.351562 37.53125 35.011719 38.34375 34.542969 39.105469 C 34.304688 39.503906 34.324219 40.007812 34.59375 40.382812 L 36.445312 42.992188 L 35.371094 44.054688 L 32.742188 42.191406 C 32.367188 41.925781 31.875 41.90625 31.480469 42.140625 C 30.710938 42.597656 29.898438 42.925781 29.050781 43.132812 C 28.597656 43.242188 28.257812 43.609375 28.183594 44.066406 L 27.648438 47.222656 L 26.136719 47.210938 L 25.601562 44.042969 C 25.527344 43.589844 25.1875 43.222656 24.734375 43.113281 C 23.898438 42.90625 23.074219 42.5625 22.304688 42.101562 C 21.914062 41.867188 21.421875 41.878906 21.046875 42.140625 L 18.40625 43.960938 L 17.339844 42.878906 L 19.199219 40.308594 C 19.472656 39.933594 19.492188 39.433594 19.253906 39.035156 C 18.796875 38.257812 18.460938 37.4375 18.253906 36.585938 C 18.144531 36.140625 17.789062 35.800781 17.335938 35.714844 L 14.203125 35.152344 L 14.21875 33.628906 L 17.335938 33.128906 C 17.792969 33.054688 18.164062 32.714844 18.277344 32.269531 C 18.492188 31.414062 18.832031 30.589844 19.304688 29.820312 C 19.542969 29.429688 19.53125 28.933594 19.265625 28.558594 L 17.472656 25.953125 L 18.546875 24.882812 L 21.109375 26.730469 C 21.480469 27 21.976562 27.023438 22.375 26.792969 C 23.15625 26.328125 23.984375 25.996094 24.839844 25.789062 C 25.285156 25.683594 25.625 25.324219 25.707031 24.875 Z M 26.929688 28.734375 C 25.441406 28.726562 23.945312 29.28125 22.8125 30.410156 C 20.539062 32.652344 20.519531 36.351562 22.765625 38.625 C 25.011719 40.898438 28.710938 40.914062 30.984375 38.671875 C 33.253906 36.425781 33.273438 32.726562 31.027344 30.453125 C 29.90625 29.316406 28.417969 28.742188 26.929688 28.734375 Z M 26.917969 31.039062 C 27.8125 31.042969 28.699219 31.390625 29.382812 32.082031 C 30.746094 33.464844 30.734375 35.65625 29.355469 37.019531 C 27.972656 38.386719 25.777344 38.378906 24.414062 36.996094 C 23.046875 35.613281 23.058594 33.417969 24.441406 32.054688 C 25.132812 31.371094 26.023438 31.03125 26.917969 31.039062 Z M 14.6875 49.546875 C 11.664062 49.546875 10.273438 50.269531 8.769531 50.847656 C 8.769531 50.851562 8.769531 50.851562 8.769531 50.851562 C 5.886719 51.976562 0.953125 54.300781 0.953125 54.300781 C 0.375 54.574219 0.125 55.265625 0.398438 55.84375 C 0.675781 56.421875 1.367188 56.671875 1.945312 56.402344 C 1.945312 56.402344 6.910156 54.0625 9.605469 53.011719 C 11.273438 52.363281 11.996094 51.863281 14.6875 51.863281 C 20.628906 51.863281 20.390625 54.441406 22.898438 55.917969 C 22.933594 55.9375 22.972656 55.960938 23.015625 55.976562 C 26.121094 57.371094 29.460938 57.652344 32.15625 57.652344 C 33.34375 57.652344 34.097656 57.929688 34.503906 58.238281 C 34.90625 58.550781 35.050781 58.871094 35.050781 59.390625 C 35.050781 60.003906 34.898438 60.292969 34.496094 60.585938 C 34.097656 60.875 33.328125 61.128906 32.15625 61.128906 L 26.074219 61.128906 C 23.519531 61.128906 19.128906 60.007812 19.128906 60.007812 C 18.730469 59.898438 18.300781 60.015625 18.003906 60.308594 C 17.710938 60.605469 17.597656 61.035156 17.707031 61.433594 C 17.820312 61.835938 18.136719 62.148438 18.539062 62.25 C 18.539062 62.25 22.898438 63.445312 26.074219 63.445312 L 32.15625 63.445312 C 33.335938 63.445312 34.363281 63.25 35.222656 62.828125 C 35.335938 62.792969 35.445312 62.746094 35.539062 62.675781 L 46.527344 55.46875 C 48.179688 54.515625 49.304688 54.246094 49.964844 54.257812 C 50.625 54.269531 50.851562 54.46875 51.050781 54.722656 C 51.347656 55.101562 51.363281 55.246094 51.175781 55.6875 C 50.980469 56.128906 50.414062 56.8125 49.394531 57.519531 C 49.394531 57.519531 49.394531 57.519531 49.390625 57.519531 C 48.132812 58.394531 34.066406 67.5625 32.441406 68.488281 C 31.214844 69.183594 30.242188 69.917969 29.132812 70.230469 C 28.023438 70.539062 26.714844 70.539062 24.554688 69.503906 C 23.109375 68.8125 16.964844 65.664062 14.972656 64.65625 C 13.863281 64.09375 12.917969 63.777344 11.953125 63.832031 C 10.988281 63.886719 10.167969 64.296875 9.320312 64.832031 C 9.316406 64.832031 9.3125 64.835938 9.3125 64.839844 L 6.445312 66.671875 C 6.082031 66.890625 5.867188 67.289062 5.882812 67.710938 C 5.894531 68.128906 6.140625 68.511719 6.515625 68.699219 C 6.894531 68.890625 7.34375 68.863281 7.691406 68.625 L 10.546875 66.796875 C 11.285156 66.332031 11.703125 66.164062 12.082031 66.144531 C 12.460938 66.121094 12.980469 66.242188 13.929688 66.722656 C 15.902344 67.722656 21.949219 70.828125 23.558594 71.589844 C 26.078125 72.800781 28.117188 72.914062 29.753906 72.460938 C 31.386719 72.003906 32.546875 71.089844 33.585938 70.5 C 35.820312 69.230469 49.101562 60.542969 50.71875 59.417969 C 51.941406 58.5625 52.84375 57.671875 53.300781 56.605469 C 53.757812 55.535156 53.609375 54.234375 52.878906 53.300781 C 52.878906 53.300781 52.878906 53.300781 52.878906 53.296875 C 52.304688 52.5625 51.289062 51.964844 50.007812 51.9375 C 49.277344 51.925781 48.46875 52.09375 47.566406 52.421875 C 47.398438 52.203125 47.148438 51.910156 46.796875 51.660156 C 46.125 51.15625 45.050781 50.703125 43.59375 50.703125 C 42.847656 50.703125 42.238281 50.875 41.75 51.078125 C 41.050781 50.414062 39.816406 49.566406 38.019531 49.566406 C 36.5625 49.566406 35.195312 50.054688 34.246094 50.617188 C 34.070312 50.722656 33.644531 50.988281 32.917969 51.441406 C 32.195312 51.894531 31.25 52.476562 30.316406 53.0625 C 28.828125 53.988281 27.90625 54.566406 27.371094 54.902344 C 26.234375 54.675781 25.101562 54.355469 24.027344 53.886719 C 23.113281 53.296875 21.355469 49.546875 14.6875 49.546875 Z M 38.019531 51.882812 C 38.753906 51.882812 39.277344 52.070312 39.648438 52.289062 L 34.289062 55.609375 C 33.652344 55.429688 32.9375 55.335938 32.15625 55.335938 C 31.820312 55.335938 31.453125 55.316406 31.105469 55.300781 C 31.324219 55.164062 31.324219 55.164062 31.542969 55.03125 C 32.476562 54.445312 33.417969 53.859375 34.144531 53.40625 C 34.871094 52.957031 35.460938 52.589844 35.421875 52.613281 C 35.96875 52.289062 37.160156 51.882812 38.019531 51.882812 Z M 43.59375 53.019531 C 44.535156 53.019531 45.042969 53.261719 45.351562 53.472656 C 45.332031 53.480469 45.320312 53.492188 45.300781 53.503906 L 37.296875 58.753906 C 37.1875 58.105469 36.921875 57.488281 36.496094 56.972656 L 42.09375 53.5 L 42.097656 53.492188 C 42.140625 53.46875 43.109375 53.019531 43.59375 53.019531 Z M 43.59375 53.019531 " fill-opacity="1" fill-rule="nonzero"/></g></svg>