<svg xmlns="http://www.w3.org/2000/svg" xmlns:xlink="http://www.w3.org/1999/xlink" width="72" zoomAndPan="magnify" viewBox="0 0 54 73.499998" height="98" preserveAspectRatio="xMidYMid meet" version="1.0"><defs><clipPath id="1065858d2c"><path d="M 0.183594 14.941406 L 53.816406 14.941406 L 53.816406 73 L 0.183594 73 Z M 0.183594 14.941406 " clip-rule="nonzero"/></clipPath></defs><g clip-path="url(#1065858d2c)"><path fill="#2b017f" d="M 49.898438 31.1875 C 49.894531 25.332031 45.128906 20.570312 39.273438 20.570312 C 33.695312 20.570312 29.105469 24.894531 28.679688 30.363281 C 27.820312 30.121094 26.929688 29.992188 26.023438 29.992188 C 24.03125 29.992188 22.113281 30.59375 20.484375 31.734375 C 19.089844 32.707031 17.988281 34.011719 17.269531 35.53125 C 16.410156 35.246094 15.507812 35.101562 14.585938 35.101562 C 12.347656 35.101562 10.230469 35.957031 8.628906 37.515625 C 7.183594 38.914062 6.296875 40.742188 6.082031 42.71875 C 2.792969 43.0625 0.21875 45.851562 0.21875 49.230469 C 0.21875 52.84375 3.15625 55.78125 6.765625 55.78125 L 13.03125 55.78125 L 13.03125 62.800781 L 11.394531 62.800781 C 11.058594 61.070312 9.53125 59.757812 7.703125 59.757812 C 5.625 59.757812 3.9375 61.449219 3.9375 63.523438 C 3.9375 65.597656 5.625 67.289062 7.703125 67.289062 C 9.53125 67.289062 11.058594 65.976562 11.394531 64.246094 L 13.753906 64.246094 C 14.152344 64.246094 14.476562 63.921875 14.476562 63.523438 L 14.476562 55.78125 L 20.105469 55.78125 L 20.105469 65.542969 C 18.375 65.882812 17.066406 67.410156 17.066406 69.234375 C 17.066406 71.3125 18.753906 73 20.828125 73 C 22.90625 73 24.59375 71.3125 24.59375 69.234375 C 24.59375 67.40625 23.28125 65.878906 21.550781 65.542969 L 21.550781 55.78125 L 27.484375 55.78125 L 27.484375 59.296875 C 27.484375 59.695312 27.808594 60.019531 28.207031 60.019531 L 33.234375 60.019531 L 33.234375 63.394531 C 31.503906 63.734375 30.191406 65.261719 30.191406 67.089844 C 30.191406 69.164062 31.882812 70.851562 33.957031 70.851562 C 36.03125 70.851562 37.722656 69.164062 37.722656 67.089844 C 37.722656 65.261719 36.410156 63.734375 34.679688 63.394531 L 34.679688 59.296875 C 34.679688 58.898438 34.355469 58.574219 33.957031 58.574219 L 28.929688 58.574219 L 28.929688 55.78125 L 33.277344 55.78125 C 35.734375 55.78125 38.078125 54.648438 39.628906 52.738281 L 41.867188 52.738281 C 42.992188 52.738281 43.910156 51.820312 43.910156 50.691406 L 43.910156 43.871094 C 44.144531 42.332031 45.132812 41.175781 46.277344 39.839844 C 48.023438 37.804688 49.996094 35.5 49.898438 31.1875 Z M 7.703125 65.839844 C 6.425781 65.839844 5.382812 64.800781 5.382812 63.523438 C 5.382812 62.242188 6.421875 61.203125 7.703125 61.203125 C 8.980469 61.203125 10.019531 62.242188 10.019531 63.523438 C 10.019531 64.800781 8.980469 65.839844 7.703125 65.839844 Z M 23.148438 69.234375 C 23.148438 70.511719 22.109375 71.554688 20.828125 71.554688 C 19.550781 71.554688 18.511719 70.515625 18.511719 69.234375 C 18.511719 67.957031 19.550781 66.917969 20.828125 66.917969 C 22.109375 66.917969 23.148438 67.957031 23.148438 69.234375 Z M 36.277344 67.085938 C 36.277344 68.367188 35.238281 69.40625 33.957031 69.40625 C 32.679688 69.40625 31.636719 68.367188 31.636719 67.085938 C 31.636719 65.808594 32.679688 64.769531 33.957031 64.769531 C 35.238281 64.769531 36.277344 65.808594 36.277344 67.085938 Z M 33.28125 54.335938 L 7.375 54.335938 C 5.851562 54.335938 4.355469 53.804688 3.164062 52.84375 C 2.234375 51.917969 1.660156 50.640625 1.660156 49.230469 C 1.660156 46.421875 3.949219 44.132812 6.757812 44.125 C 7.148438 44.125 7.46875 43.816406 7.480469 43.425781 C 7.601562 39.566406 10.71875 36.546875 14.582031 36.546875 C 15.554688 36.546875 16.492188 36.738281 17.378906 37.113281 C 17.558594 37.191406 17.761719 37.191406 17.941406 37.117188 C 18.121094 37.039062 18.265625 36.894531 18.335938 36.710938 C 19.550781 33.558594 22.640625 31.4375 26.023438 31.4375 C 26.925781 31.4375 27.808594 31.585938 28.652344 31.871094 C 28.765625 35.746094 30.621094 37.917969 32.269531 39.839844 C 33.414062 41.175781 34.402344 42.332031 34.636719 43.871094 L 34.636719 50.691406 C 34.636719 51.820312 35.554688 52.738281 36.683594 52.738281 L 37.617188 52.738281 C 36.410156 53.753906 34.871094 54.335938 33.28125 54.335938 Z M 42.46875 47.1875 L 36.082031 47.1875 L 36.082031 44.53125 L 42.46875 44.53125 Z M 42.46875 50.691406 C 42.46875 51.019531 42.199219 51.289062 41.867188 51.289062 L 36.679688 51.289062 C 36.347656 51.289062 36.082031 51.019531 36.082031 50.691406 L 36.082031 48.632812 L 42.46875 48.632812 Z M 45.183594 38.898438 C 44.066406 40.199219 43.011719 41.433594 42.59375 43.085938 L 35.953125 43.085938 C 35.539062 41.433594 34.480469 40.195312 33.363281 38.898438 C 31.714844 36.96875 30.003906 34.976562 30.09375 31.214844 C 30.09375 31.207031 30.09375 31.203125 30.09375 31.195312 C 30.09375 26.132812 34.210938 22.015625 39.273438 22.015625 C 44.335938 22.015625 48.453125 26.132812 48.453125 31.195312 C 48.453125 31.203125 48.453125 31.207031 48.453125 31.214844 C 48.542969 34.976562 46.832031 36.96875 45.183594 38.898438 Z M 38.550781 18.496094 L 38.550781 15.664062 C 38.550781 15.265625 38.875 14.941406 39.273438 14.941406 C 39.671875 14.941406 39.996094 15.265625 39.996094 15.664062 L 39.996094 18.496094 C 39.996094 18.894531 39.671875 19.21875 39.273438 19.21875 C 38.875 19.21875 38.550781 18.894531 38.550781 18.496094 Z M 30.75 18.140625 C 30.550781 17.796875 30.671875 17.355469 31.015625 17.152344 C 31.363281 16.953125 31.804688 17.074219 32.003906 17.417969 L 33.421875 19.871094 C 33.621094 20.21875 33.5 20.660156 33.15625 20.859375 C 33.039062 20.925781 32.917969 20.957031 32.796875 20.957031 C 32.546875 20.957031 32.300781 20.828125 32.167969 20.59375 Z M 24.96875 23.199219 C 25.171875 22.855469 25.613281 22.734375 25.957031 22.933594 L 28.410156 24.351562 C 28.757812 24.550781 28.875 24.992188 28.675781 25.339844 C 28.542969 25.570312 28.300781 25.699219 28.050781 25.699219 C 27.925781 25.699219 27.804688 25.667969 27.691406 25.601562 L 25.238281 24.1875 C 24.886719 23.988281 24.769531 23.542969 24.96875 23.199219 Z M 53.3125 24.1875 L 50.859375 25.601562 C 50.746094 25.667969 50.621094 25.699219 50.5 25.699219 C 50.25 25.699219 50.007812 25.570312 49.871094 25.335938 C 49.671875 24.992188 49.792969 24.550781 50.136719 24.347656 L 52.589844 22.933594 C 52.9375 22.734375 53.378906 22.851562 53.578125 23.199219 C 53.777344 23.542969 53.660156 23.988281 53.3125 24.1875 Z M 45.128906 19.871094 L 46.542969 17.417969 C 46.746094 17.070312 47.1875 16.953125 47.53125 17.152344 C 47.878906 17.351562 47.996094 17.792969 47.796875 18.140625 L 46.378906 20.59375 C 46.246094 20.824219 46.003906 20.957031 45.753906 20.957031 C 45.632812 20.957031 45.507812 20.925781 45.394531 20.859375 C 45.046875 20.660156 44.929688 20.21875 45.128906 19.871094 Z M 45.957031 27.78125 C 46.238281 28.0625 46.238281 28.519531 45.957031 28.800781 L 38.09375 36.664062 C 37.960938 36.800781 37.777344 36.878906 37.585938 36.878906 C 37.394531 36.878906 37.207031 36.800781 37.074219 36.664062 L 32.589844 32.183594 C 32.308594 31.902344 32.308594 31.441406 32.589844 31.160156 C 32.871094 30.878906 33.328125 30.878906 33.613281 31.160156 L 37.585938 35.132812 L 44.9375 27.78125 C 45.21875 27.5 45.675781 27.5 45.957031 27.78125 Z M 30.78125 45.175781 C 31.074219 45.445312 31.097656 45.902344 30.832031 46.199219 C 30.6875 46.355469 30.492188 46.433594 30.296875 46.433594 C 30.121094 46.433594 29.949219 46.375 29.808594 46.246094 C 27.347656 44.011719 24.160156 42.777344 20.832031 42.777344 C 17.5 42.777344 14.3125 44.011719 11.851562 46.246094 C 11.554688 46.515625 11.097656 46.492188 10.828125 46.195312 C 10.5625 45.902344 10.582031 45.445312 10.878906 45.175781 C 13.605469 42.695312 17.140625 41.332031 20.832031 41.332031 C 24.519531 41.332031 28.054688 42.695312 30.78125 45.175781 Z M 27.960938 48.285156 C 28.253906 48.550781 28.277344 49.007812 28.007812 49.304688 C 27.867188 49.460938 27.671875 49.539062 27.472656 49.539062 C 27.300781 49.539062 27.128906 49.480469 26.988281 49.351562 C 25.300781 47.820312 23.113281 46.972656 20.832031 46.972656 C 18.550781 46.972656 16.363281 47.820312 14.675781 49.351562 C 14.378906 49.621094 13.921875 49.601562 13.652344 49.304688 C 13.382812 49.007812 13.40625 48.550781 13.703125 48.28125 C 15.65625 46.503906 18.1875 45.527344 20.832031 45.527344 C 23.472656 45.527344 26.003906 46.507812 27.960938 48.285156 Z M 25.136719 51.390625 C 25.433594 51.660156 25.453125 52.113281 25.1875 52.410156 C 25.046875 52.566406 24.847656 52.648438 24.652344 52.648438 C 24.480469 52.648438 24.304688 52.585938 24.167969 52.460938 C 23.253906 51.628906 22.066406 51.171875 20.832031 51.171875 C 19.59375 51.171875 18.410156 51.628906 17.492188 52.460938 C 17.199219 52.726562 16.742188 52.707031 16.472656 52.410156 C 16.203125 52.113281 16.226562 51.65625 16.523438 51.390625 C 17.703125 50.316406 19.234375 49.722656 20.832031 49.722656 C 22.425781 49.726562 23.957031 50.316406 25.136719 51.390625 Z M 25.136719 51.390625 " fill-opacity="1" fill-rule="nonzero"/></g></svg>