<svg xmlns="http://www.w3.org/2000/svg" xmlns:xlink="http://www.w3.org/1999/xlink" width="72" zoomAndPan="magnify" viewBox="0 0 54 73.499998" height="98" preserveAspectRatio="xMidYMid meet" version="1.0"><defs><clipPath id="1aca64325b"><path d="M 0.183594 16.707031 L 29 16.707031 L 29 73 L 0.183594 73 Z M 0.183594 16.707031 " clip-rule="nonzero"/></clipPath><clipPath id="807f5c2875"><path d="M 29 16.707031 L 53.816406 16.707031 L 53.816406 73 L 29 73 Z M 29 16.707031 " clip-rule="nonzero"/></clipPath></defs><g clip-path="url(#1aca64325b)"><path fill="#2b017f" d="M 28.3125 16.714844 C 27.507812 16.714844 26.691406 16.75 25.894531 16.820312 C 25.660156 16.839844 25.484375 17.03125 25.484375 17.265625 L 25.484375 19.253906 C 25.484375 20.328125 24.722656 21.257812 23.667969 21.46875 C 22.613281 21.675781 21.546875 21.109375 21.132812 20.113281 L 20.375 18.273438 C 20.285156 18.0625 20.046875 17.949219 19.824219 18.019531 C 18.289062 18.507812 16.78125 19.128906 15.347656 19.875 C 15.144531 19.984375 15.054688 20.230469 15.144531 20.441406 L 15.914062 22.308594 C 16.320312 23.285156 15.976562 24.425781 15.09375 25.015625 C 14.1875 25.621094 12.972656 25.5 12.203125 24.730469 L 10.8125 23.34375 C 10.648438 23.179688 10.386719 23.167969 10.210938 23.316406 C 8.972656 24.355469 7.820312 25.507812 6.785156 26.742188 C 6.632812 26.917969 6.644531 27.183594 6.808594 27.34375 L 8.214844 28.753906 C 8.976562 29.511719 9.09375 30.710938 8.496094 31.605469 C 7.894531 32.496094 6.742188 32.847656 5.75 32.4375 L 3.910156 31.675781 C 3.695312 31.585938 3.449219 31.675781 3.34375 31.878906 C 2.597656 33.3125 1.972656 34.820312 1.488281 36.359375 C 1.417969 36.578125 1.527344 36.816406 1.742188 36.90625 L 3.578125 37.667969 C 4.574219 38.078125 5.144531 39.144531 4.933594 40.199219 C 4.722656 41.253906 3.789062 42.019531 2.71875 42.019531 L 0.730469 42.019531 C 0.5 42.019531 0.304688 42.195312 0.285156 42.425781 C 0.21875 43.226562 0.183594 44.042969 0.183594 44.847656 C 0.183594 45.652344 0.21875 46.46875 0.285156 47.269531 C 0.304688 47.5 0.5 47.679688 0.730469 47.679688 L 2.714844 47.679688 C 3.789062 47.679688 4.722656 48.445312 4.933594 49.5 C 5.144531 50.554688 4.574219 51.617188 3.582031 52.03125 L 1.742188 52.792969 C 1.527344 52.878906 1.417969 53.117188 1.488281 53.339844 C 1.972656 54.878906 2.597656 56.382812 3.34375 57.816406 C 3.449219 58.019531 3.695312 58.109375 3.910156 58.023438 L 5.753906 57.257812 C 6.742188 56.847656 7.898438 57.199219 8.492188 58.089844 C 9.09375 58.984375 8.976562 60.183594 8.214844 60.945312 L 6.808594 62.351562 C 6.644531 62.515625 6.632812 62.777344 6.785156 62.953125 C 7.820312 64.1875 8.976562 65.339844 10.210938 66.378906 C 10.386719 66.527344 10.648438 66.519531 10.8125 66.355469 L 12.21875 64.949219 C 12.980469 64.1875 14.179688 64.070312 15.074219 64.667969 C 15.96875 65.265625 16.316406 66.421875 15.90625 67.414062 L 15.144531 69.253906 C 15.054688 69.464844 15.144531 69.710938 15.347656 69.820312 C 16.78125 70.566406 18.289062 71.1875 19.824219 71.675781 C 20.046875 71.746094 20.285156 71.632812 20.375 71.421875 L 21.164062 69.511719 C 21.558594 68.558594 22.582031 68.011719 23.59375 68.210938 L 23.738281 68.242188 C 24.75 68.441406 25.484375 69.339844 25.484375 70.371094 L 25.484375 72.429688 C 25.484375 72.664062 25.660156 72.855469 25.894531 72.875 C 26.691406 72.945312 27.507812 72.976562 28.3125 72.976562 C 28.5625 72.976562 28.761719 72.777344 28.761719 72.53125 L 28.761719 55.925781 C 28.761719 55.679688 28.5625 55.480469 28.3125 55.480469 C 22.453125 55.480469 17.683594 50.710938 17.683594 44.847656 C 17.683594 38.984375 22.453125 34.214844 28.3125 34.214844 C 28.5625 34.214844 28.761719 34.015625 28.761719 33.769531 L 28.761719 17.164062 C 28.761719 16.917969 28.5625 16.714844 28.3125 16.714844 Z M 27.867188 33.332031 C 21.71875 33.566406 16.789062 38.640625 16.789062 44.847656 C 16.789062 51.054688 21.71875 56.128906 27.867188 56.363281 L 27.867188 72.082031 C 27.371094 72.074219 26.871094 72.054688 26.378906 72.019531 L 26.378906 70.371094 C 26.378906 68.914062 25.34375 67.652344 23.914062 67.367188 L 23.769531 67.339844 C 22.335938 67.050781 20.894531 67.824219 20.335938 69.171875 L 19.707031 70.699219 C 18.480469 70.289062 17.28125 69.792969 16.125 69.214844 L 16.730469 67.753906 C 17.304688 66.371094 16.816406 64.761719 15.570312 63.925781 C 14.324219 63.089844 12.648438 63.253906 11.585938 64.316406 L 10.472656 65.429688 C 9.496094 64.582031 8.578125 63.664062 7.734375 62.691406 L 8.84375 61.578125 C 9.90625 60.515625 10.070312 58.839844 9.234375 57.589844 C 8.402344 56.347656 6.792969 55.859375 5.410156 56.433594 L 3.949219 57.039062 C 3.371094 55.882812 2.871094 54.683594 2.464844 53.457031 L 3.921875 52.855469 C 5.308594 52.28125 6.101562 50.792969 5.808594 49.320312 C 5.515625 47.851562 4.214844 46.785156 2.714844 46.785156 L 1.144531 46.785156 C 1.097656 46.140625 1.074219 45.492188 1.074219 44.847656 C 1.074219 44.203125 1.097656 43.554688 1.144531 42.910156 L 2.71875 42.910156 C 4.214844 42.910156 5.515625 41.84375 5.808594 40.375 C 6.101562 38.902344 5.308594 37.414062 3.921875 36.839844 L 2.464844 36.234375 C 2.871094 35.011719 3.371094 33.8125 3.949219 32.65625 L 5.40625 33.261719 C 6.792969 33.835938 8.402344 33.347656 9.238281 32.101562 C 10.070312 30.855469 9.910156 29.179688 8.847656 28.121094 L 7.734375 27.003906 C 8.578125 26.03125 9.496094 25.109375 10.472656 24.265625 L 11.570312 25.363281 C 12.640625 26.433594 14.332031 26.597656 15.589844 25.753906 C 16.824219 24.929688 17.308594 23.335938 16.738281 21.964844 L 16.125 20.480469 C 17.28125 19.902344 18.480469 19.40625 19.707031 18.996094 L 20.308594 20.453125 C 20.886719 21.84375 22.371094 22.636719 23.84375 22.34375 C 25.3125 22.050781 26.378906 20.75 26.378906 19.253906 L 26.378906 17.675781 C 26.871094 17.644531 27.371094 17.621094 27.867188 17.613281 Z M 27.867188 33.332031 " fill-opacity="1" fill-rule="nonzero"/></g><g clip-path="url(#807f5c2875)"><path fill="#2b017f" d="M 30.335938 16.714844 C 30.089844 16.714844 29.890625 16.917969 29.890625 17.164062 L 29.890625 72.53125 C 29.890625 72.777344 30.089844 72.980469 30.335938 72.980469 L 35.007812 72.980469 C 37.019531 72.980469 38.65625 71.34375 38.65625 69.332031 L 38.65625 63.421875 C 38.65625 62.691406 39.097656 62.023438 39.78125 61.722656 C 48.3125 57.972656 53.828125 49.527344 53.828125 40.207031 C 53.828125 27.253906 43.289062 16.714844 30.335938 16.714844 Z M 34.066406 41.640625 C 34.816406 41.640625 35.445312 42.566406 35.445312 43.660156 C 35.445312 44.753906 34.816406 45.679688 34.066406 45.679688 C 33.320312 45.679688 32.6875 44.753906 32.6875 43.660156 C 32.6875 42.566406 33.320312 41.640625 34.066406 41.640625 Z M 31.792969 43.660156 C 31.792969 45.265625 32.8125 46.574219 34.066406 46.574219 C 35.320312 46.574219 36.339844 45.265625 36.339844 43.660156 C 36.339844 42.367188 35.679688 41.273438 34.773438 40.890625 C 35.167969 40.386719 36.03125 39.652344 37.710938 39.652344 C 38.988281 39.652344 40.039062 40.171875 40.738281 41.152344 C 41.726562 42.535156 41.902344 44.671875 41.199219 46.730469 C 40.53125 48.6875 38.652344 50.132812 37.195312 51.003906 C 35.527344 51.996094 34.492188 53.792969 34.492188 55.695312 L 34.492188 59.589844 L 30.78125 59.589844 L 30.78125 39.683594 C 31.746094 39.8125 32.519531 40.332031 33.203125 40.964844 C 32.378906 41.402344 31.792969 42.445312 31.792969 43.660156 Z M 30.78125 68.886719 L 30.78125 66.824219 L 37.761719 66.824219 L 37.761719 68.886719 Z M 37.761719 65.929688 L 30.78125 65.929688 L 30.78125 63.867188 L 37.761719 63.867188 Z M 36.308594 62.976562 L 30.78125 62.976562 L 30.78125 60.484375 L 35.410156 60.484375 C 35.90625 60.484375 36.308594 60.84375 36.308594 61.289062 Z M 35.007812 72.085938 L 30.78125 72.085938 L 30.78125 69.78125 L 37.722656 69.78125 C 37.507812 71.085938 36.375 72.085938 35.007812 72.085938 Z M 39.421875 60.90625 C 38.554688 61.285156 37.953125 62.070312 37.800781 62.976562 L 37.199219 62.976562 L 37.199219 61.289062 C 37.199219 60.351562 36.398438 59.589844 35.410156 59.589844 L 35.386719 59.589844 L 35.386719 55.695312 C 35.386719 54.105469 36.253906 52.605469 37.652344 51.769531 C 39.238281 50.824219 41.289062 49.230469 42.046875 47.019531 C 42.839844 44.691406 42.617188 42.246094 41.464844 40.632812 C 40.601562 39.425781 39.265625 38.757812 37.710938 38.757812 C 35.546875 38.757812 34.457031 39.789062 33.972656 40.464844 C 33.136719 39.652344 32.113281 38.925781 30.78125 38.785156 L 30.78125 17.613281 C 43.039062 17.851562 52.933594 27.894531 52.933594 40.207031 C 52.933594 49.171875 47.628906 57.296875 39.421875 60.90625 Z M 39.421875 60.90625 " fill-opacity="1" fill-rule="nonzero"/></g></svg>